<svg width="24" height="25" viewBox="0 0 24 25" fill="none" xmlns="http://www.w3.org/2000/svg">
<path d="M17 4.5H7C4 4.5 2 6 2 9.5V13.06C2 13.43 2.38 13.66 2.71 13.51C3.69 13.06 4.82 12.89 6.01 13.1C8.64 13.57 10.57 16.01 10.5 18.68C10.49 19.1 10.43 19.51 10.32 19.91C10.24 20.22 10.49 20.51 10.81 20.51H17C20 20.51 22 19.01 22 15.51V9.5C22 6 20 4.5 17 4.5ZM12 15C10.62 15 9.5 13.88 9.5 12.5C9.5 11.12 10.62 10 12 10C13.38 10 14.5 11.12 14.5 12.5C14.5 13.88 13.38 15 12 15ZM19.25 14.5C19.25 14.91 18.91 15.25 18.5 15.25C18.09 15.25 17.75 14.91 17.75 14.5V10.5C17.75 10.09 18.09 9.75 18.5 9.75C18.91 9.75 19.25 10.09 19.25 10.5V14.5Z" fill="#32D583"/>
<path d="M5 14.5C3.75 14.5 2.62 15.09 1.89 15.99C1.33 16.68 1 17.55 1 18.5C1 20.71 2.8 22.5 5 22.5C6.74 22.5 8.23 21.39 8.77 19.83C8.92 19.42 9 18.97 9 18.5C9 16.3 7.21 14.5 5 14.5ZM7.36 20.24C7.34 20.3 7.3 20.36 7.26 20.4L6.54 21.11C6.45 21.21 6.33 21.25 6.2 21.25C6.07 21.25 5.94 21.21 5.85 21.11C5.69 20.96 5.67 20.72 5.77 20.54H3.76C3.12 20.54 2.6 20.02 2.6 19.37V19.27C2.6 18.99 2.82 18.78 3.09 18.78C3.36 18.78 3.58 18.99 3.58 19.27V19.37C3.58 19.48 3.66 19.57 3.77 19.57H5.78C5.68 19.38 5.7 19.15 5.86 18.99C6.05 18.8 6.36 18.8 6.54 18.99L7.26 19.71C7.3 19.75 7.34 19.81 7.37 19.87C7.41 19.98 7.41 20.12 7.36 20.24ZM7.4 17.73C7.4 18.01 7.18 18.22 6.91 18.22C6.64 18.22 6.42 18.01 6.42 17.73V17.63C6.42 17.52 6.34 17.43 6.23 17.43H4.23C4.33 17.62 4.31 17.85 4.15 18.01C4.06 18.1 3.94 18.15 3.8 18.15C3.68 18.15 3.55 18.1 3.46 18.01L2.74 17.29C2.7 17.25 2.66 17.19 2.63 17.13C2.59 17.01 2.59 16.88 2.63 16.76C2.66 16.71 2.69 16.64 2.74 16.6L3.46 15.89C3.65 15.69 3.96 15.69 4.14 15.89C4.3 16.04 4.32 16.28 4.22 16.46H6.23C6.87 16.46 7.39 16.98 7.39 17.63V17.73H7.4Z" fill="#32D583"/>
</svg>
