<svg width="25" height="25" viewBox="0 0 25 25" fill="none" xmlns="http://www.w3.org/2000/svg">
<path d="M10.6982 3.0776L3.7682 8.62758C2.9882 9.24758 2.48819 10.5576 2.65819 11.5376L3.9882 19.4976C4.2282 20.9176 5.58819 22.0676 7.02819 22.0676H18.2282C19.6582 22.0676 21.0282 20.9076 21.2682 19.4976L22.5982 11.5376C22.7582 10.5576 22.2582 9.24758 21.4882 8.62758L14.5582 3.08761C13.4882 2.22761 11.7582 2.2276 10.6982 3.0776Z" stroke="#D4DBEA" stroke-width="1.5" stroke-linecap="round" stroke-linejoin="round"/>
<path d="M12.6284 15.7576C14.0091 15.7576 15.1284 14.6383 15.1284 13.2576C15.1284 11.8769 14.0091 10.7576 12.6284 10.7576C11.2477 10.7576 10.1284 11.8769 10.1284 13.2576C10.1284 14.6383 11.2477 15.7576 12.6284 15.7576Z" stroke="#D4DBEA" stroke-width="1.5" stroke-linecap="round" stroke-linejoin="round"/>
</svg>
