<svg width="40" height="40" viewBox="0 0 40 40" fill="none" xmlns="http://www.w3.org/2000/svg">
<rect width="40" height="40" rx="20" fill="white"/>
<path d="M18.7132 13.88L14.0932 17.58C13.5732 17.9933 13.2399 18.8667 13.3532 19.52L14.2399 24.8267C14.3999 25.7733 15.3065 26.54 16.2665 26.54H23.7332C24.6865 26.54 25.5999 25.7667 25.7599 24.8267L26.6465 19.52C26.7532 18.8667 26.4199 17.9933 25.9065 17.58L21.2865 13.8867C20.5732 13.3134 19.4199 13.3134 18.7132 13.88Z" stroke="#252525" stroke-linecap="round" stroke-linejoin="round"/>
<path d="M20.0002 22.3333C20.9206 22.3333 21.6668 21.5871 21.6668 20.6667C21.6668 19.7462 20.9206 19 20.0002 19C19.0797 19 18.3335 19.7462 18.3335 20.6667C18.3335 21.5871 19.0797 22.3333 20.0002 22.3333Z" stroke="#252525" stroke-linecap="round" stroke-linejoin="round"/>
</svg>
