<svg width="40" height="40" viewBox="0 0 40 40" fill="none" xmlns="http://www.w3.org/2000/svg">
<rect width="40" height="40" rx="20" fill="white"/>
<path d="M20.0001 10C19.8382 10 19.7071 10.1312 19.7071 10.293V12.8704H19.6726C19.395 12.8704 19.1691 13.0963 19.1691 13.3739V15.7871H19.1415C18.8601 15.7871 18.6311 16.0161 18.6311 16.2975V19.5746H18.4639C18.2373 19.5746 18.0529 19.759 18.0529 19.9856V23.6865H17.8548C17.6281 23.6865 17.4438 23.8709 17.4438 24.0975V29.4163C17.2984 29.4335 17.1855 29.557 17.1855 29.707C17.1855 29.8689 17.3167 30 17.4785 30H22.5218C22.6836 30 22.8147 29.8689 22.8147 29.707C22.8147 29.557 22.7019 29.4335 22.5565 29.4163V27.4118C22.5565 27.25 22.4254 27.1188 22.2635 27.1188C22.1017 27.1188 21.9705 27.25 21.9705 27.4118V29.4141H20.7909V24.2725H21.9705V26.0446C21.9705 26.2065 22.1017 26.3376 22.2635 26.3376C22.4254 26.3376 22.5565 26.2065 22.5565 26.0446V24.0975C22.5565 23.8709 22.3721 23.6865 22.1455 23.6865H21.9473V22.6071C21.9473 22.4453 21.8162 22.3142 21.6544 22.3142C21.4925 22.3142 21.3614 22.4453 21.3614 22.6071V23.6865H20.7909V20.1605H21.3614V21.24C21.3614 21.4018 21.4925 21.5329 21.6544 21.5329C21.8162 21.5329 21.9473 21.4018 21.9473 21.24V19.9856C21.9473 19.759 21.763 19.5746 21.5364 19.5746H21.3692V16.2976C21.3692 16.0161 21.1402 15.7872 20.8588 15.7872H20.8312V13.3739C20.8312 13.0963 20.6053 12.8704 20.3277 12.8704H20.293V10.293C20.293 10.1312 20.1619 10 20.0001 10ZM19.2171 16.3731H19.7071V19.5746C19.4568 19.5746 19.3993 19.5746 19.2171 19.5746V16.3731ZM18.6389 20.1605H19.2094V23.6865H18.6389V20.1605ZM18.0297 24.2725H19.2094V29.4141H18.0297V24.2725ZM20.2048 29.4141H19.7953C19.7953 29.0165 19.7953 20.563 19.7953 20.1605H20.2048V29.4141ZM20.293 19.5746V16.3731H20.7831V19.5746C20.5999 19.5746 20.5451 19.5746 20.293 19.5746ZM19.7551 15.7871V13.4563H20.2451V15.7871C20.0678 15.7871 19.9324 15.7871 19.7551 15.7871Z" fill="#1D2939"/>
</svg>
