<svg width="131" height="41" viewBox="0 0 131 41" fill="none" xmlns="http://www.w3.org/2000/svg">
<path d="M35.2677 26.7858V34.8153L21.5081 34.7822L35.2677 26.7858ZM15.4603 34.767L1.62283 34.7334V26.7773L15.4603 34.767ZM1.62283 23.9617V12.4341L11.5742 18.1793L1.62283 23.9617ZM19.3173 14.7533V2.28318L34.4679 11.0301L23.7029 17.2856L19.3173 14.7533ZM18.3927 16.0933L22.0859 18.2254L18.5045 20.307L14.8113 18.1744L18.3927 16.0933ZM2.42977 11.0261L17.6945 2.15474V14.6227L13.1916 17.2395L2.42977 11.0261ZM17.6945 21.7128V34.1829L2.42977 25.3697L13.1939 19.1143L17.6945 21.7128ZM34.4679 25.3742L19.3173 34.1785V21.711L23.7056 19.1604L34.4679 25.3742ZM35.2677 12.4413V23.9622L25.3226 18.2205L35.2677 12.4413ZM36.886 10.8927L36.8856 10.8892C36.8649 10.7721 36.8189 10.6609 36.7508 10.5634C36.6827 10.4659 36.5941 10.3845 36.4913 10.3248L18.7968 0.108978C18.6733 0.0372734 18.533 -0.000385284 18.3902 -0.000148773C18.2474 8.7738e-05 18.1073 0.038208 17.984 0.110321L0.404141 10.327C0.281346 10.3984 0.17941 10.5007 0.108498 10.6238C0.0375851 10.7468 0.000174518 10.8863 0 11.0284V35.543C0 35.9897 0.363416 36.354 0.810074 36.3545L36.0786 36.4399C36.1853 36.4403 36.291 36.4196 36.3897 36.379C36.4884 36.3384 36.578 36.2787 36.6535 36.2032C36.7289 36.1278 36.7887 36.0382 36.8294 35.9396C36.8701 35.8409 36.8908 35.7352 36.8905 35.6285V11.1062C36.8945 11.0803 36.8976 11.0539 36.8976 11.027C36.8976 10.9818 36.8936 10.9371 36.886 10.8927Z" fill="white"/>
<path d="M47.5388 31V10.4167H50.6444V19.3616H60.9059V10.4167H64.0215V31H60.9059V22.025H50.6444V31H47.5388ZM86.1126 20.7083C86.1126 22.906 85.7106 24.7955 84.9066 26.3768C84.1025 27.9514 83.0003 29.1641 81.6 30.0151C80.2063 30.8593 78.6217 31.2814 76.8461 31.2814C75.0638 31.2814 73.4725 30.8593 72.0722 30.0151C70.6785 29.1641 69.5797 27.948 68.7756 26.3667C67.9716 24.7855 67.5696 22.8993 67.5696 20.7083C67.5696 18.5107 67.9716 16.6245 68.7756 15.05C69.5797 13.4687 70.6785 12.2559 72.0722 11.4117C73.4725 10.5608 75.0638 10.1353 76.8461 10.1353C78.6217 10.1353 80.2063 10.5608 81.6 11.4117C83.0003 12.2559 84.1025 13.4687 84.9066 15.05C85.7106 16.6245 86.1126 18.5107 86.1126 20.7083ZM83.0372 20.7083C83.0372 19.0333 82.7658 17.6229 82.2231 16.4771C81.6871 15.3247 80.95 14.4536 80.012 13.864C79.0807 13.2677 78.0254 12.9695 76.8461 12.9695C75.6602 12.9695 74.6015 13.2677 73.6702 13.864C72.7388 14.4536 72.0018 15.3247 71.4591 16.4771C70.9231 17.6229 70.655 19.0333 70.655 20.7083C70.655 22.3834 70.9231 23.7972 71.4591 24.9496C72.0018 26.0954 72.7388 26.9664 73.6702 27.5627C74.6015 28.1524 75.6602 28.4472 76.8461 28.4472C78.0254 28.4472 79.0807 28.1524 80.012 27.5627C80.95 26.9664 81.6871 26.0954 82.2231 24.9496C82.7658 23.7972 83.0372 22.3834 83.0372 20.7083ZM89.6732 10.4167H93.4421L99.995 26.417H100.236L106.789 10.4167H110.558V31H107.603V16.1052H107.412L101.342 30.9698H98.8895L92.819 16.0952H92.6281V31H89.6732V10.4167ZM121.646 31.2814C120.266 31.2814 119.033 31.0436 117.948 30.5678C116.869 30.0921 116.015 29.4321 115.385 28.5879C114.762 27.737 114.427 26.752 114.38 25.6331H117.536C117.576 26.2428 117.78 26.7721 118.149 27.221C118.524 27.6633 119.013 28.005 119.616 28.2462C120.219 28.4874 120.889 28.608 121.626 28.608C122.437 28.608 123.154 28.4673 123.777 28.1859C124.407 27.9045 124.899 27.5125 125.255 27.01C125.61 26.5008 125.787 25.9145 125.787 25.2511C125.787 24.561 125.61 23.9546 125.255 23.432C124.906 22.9027 124.394 22.4873 123.717 22.1858C123.047 21.8843 122.236 21.7335 121.285 21.7335H119.546V19.2008H121.285C122.048 19.2008 122.718 19.0634 123.295 18.7887C123.878 18.514 124.333 18.1321 124.662 17.643C124.99 17.1471 125.154 16.5676 125.154 15.9042C125.154 15.2677 125.01 14.7149 124.722 14.2459C124.44 13.7702 124.038 13.3983 123.516 13.1303C123 12.8623 122.39 12.7283 121.687 12.7283C121.017 12.7283 120.39 12.8523 119.807 13.1002C119.231 13.3414 118.762 13.6898 118.4 14.1454C118.038 14.5943 117.844 15.1337 117.817 15.7635H114.812C114.846 14.6513 115.174 13.673 115.797 12.8288C116.427 11.9846 117.258 11.3246 118.29 10.8489C119.321 10.3731 120.467 10.1353 121.727 10.1353C123.047 10.1353 124.186 10.3932 125.144 10.9092C126.109 11.4184 126.853 12.0985 127.375 12.9494C127.905 13.8003 128.166 14.7317 128.159 15.7434C128.166 16.8959 127.844 17.8741 127.194 18.6782C126.551 19.4822 125.693 20.0216 124.621 20.2963V20.4571C125.988 20.6648 127.047 21.2075 127.797 22.0853C128.554 22.963 128.93 24.0518 128.923 25.3517C128.93 26.484 128.615 27.4991 127.978 28.3969C127.348 29.2948 126.487 30.0017 125.395 30.5176C124.303 31.0268 123.053 31.2814 121.646 31.2814ZM65.856 35.1678V34.7451H68.3751V35.1678H67.3595V38H66.87V35.1678H65.856ZM69.5187 38.0493C69.2898 38.0493 69.0901 37.9968 68.9195 37.8919C68.7489 37.787 68.6165 37.6403 68.5222 37.4517C68.4279 37.2631 68.3807 37.0427 68.3807 36.7905C68.3807 36.5373 68.4279 36.3158 68.5222 36.1262C68.6165 35.9365 68.7489 35.7893 68.9195 35.6844C69.0901 35.5795 69.2898 35.527 69.5187 35.527C69.7475 35.527 69.9472 35.5795 70.1178 35.6844C70.2884 35.7893 70.4209 35.9365 70.5152 36.1262C70.6095 36.3158 70.6566 36.5373 70.6566 36.7905C70.6566 37.0427 70.6095 37.2631 70.5152 37.4517C70.4209 37.6403 70.2884 37.787 70.1178 37.8919C69.9472 37.9968 69.7475 38.0493 69.5187 38.0493ZM69.5203 37.6503C69.6686 37.6503 69.7915 37.6111 69.889 37.5327C69.9865 37.4543 70.0585 37.35 70.1051 37.2196C70.1528 37.0893 70.1766 36.9458 70.1766 36.7889C70.1766 36.6332 70.1528 36.4901 70.1051 36.3598C70.0585 36.2284 69.9865 36.123 69.889 36.0435C69.7915 35.9641 69.6686 35.9243 69.5203 35.9243C69.3709 35.9243 69.2469 35.9641 69.1484 36.0435C69.0509 36.123 68.9783 36.2284 68.9306 36.3598C68.884 36.4901 68.8607 36.6332 68.8607 36.7889C68.8607 36.9458 68.884 37.0893 68.9306 37.2196C68.9783 37.35 69.0509 37.4543 69.1484 37.5327C69.2469 37.6111 69.3709 37.6503 69.5203 37.6503ZM71.5749 37.172L71.5717 36.5919H71.6544L72.627 35.5588H73.196L72.0866 36.7349H72.0119L71.5749 37.172ZM71.1378 38V34.7451H71.613V38H71.1378ZM72.6795 38L71.8053 36.8398L72.1327 36.5076L73.2627 38H72.6795ZM74.5315 38.0493C74.2909 38.0493 74.0838 37.9979 73.91 37.8951C73.7373 37.7913 73.6038 37.6456 73.5095 37.458C73.4163 37.2694 73.3697 37.0485 73.3697 36.7953C73.3697 36.5452 73.4163 36.3249 73.5095 36.1341C73.6038 35.9434 73.7352 35.7946 73.9037 35.6875C74.0732 35.5805 74.2713 35.527 74.4981 35.527C74.6358 35.527 74.7693 35.5498 74.8986 35.5954C75.0279 35.6409 75.1439 35.7124 75.2467 35.8099C75.3494 35.9074 75.4305 36.034 75.4898 36.1898C75.5492 36.3445 75.5788 36.5325 75.5788 36.754V36.9224H73.6383V36.5664H75.1132C75.1132 36.4414 75.0877 36.3307 75.0369 36.2343C74.986 36.1368 74.9145 36.06 74.8223 36.0038C74.7312 35.9477 74.6242 35.9196 74.5013 35.9196C74.3678 35.9196 74.2512 35.9524 74.1516 36.0181C74.0531 36.0827 73.9768 36.1675 73.9227 36.2724C73.8698 36.3762 73.8433 36.4891 73.8433 36.6109V36.8891C73.8433 37.0522 73.8719 37.191 73.9291 37.3055C73.9874 37.4199 74.0684 37.5073 74.1723 37.5677C74.2761 37.627 74.3974 37.6567 74.5362 37.6567C74.6263 37.6567 74.7084 37.644 74.7826 37.6186C74.8567 37.5921 74.9208 37.5529 74.9749 37.501C75.0289 37.449 75.0702 37.3849 75.0988 37.3086L75.5486 37.3897C75.5126 37.5221 75.448 37.6382 75.3547 37.7378C75.2625 37.8363 75.1465 37.9131 75.0067 37.9682C74.8679 38.0223 74.7095 38.0493 74.5315 38.0493ZM76.5321 36.5505V38H76.0568V35.5588H76.513V35.9561H76.5432C76.5993 35.8269 76.6873 35.723 76.807 35.6446C76.9278 35.5662 77.0798 35.527 77.2631 35.527C77.4295 35.527 77.5752 35.562 77.7002 35.6319C77.8252 35.7008 77.9222 35.8036 77.9911 35.9402C78.0599 36.0769 78.0944 36.2459 78.0944 36.4472V38H77.6191V36.5044C77.6191 36.3275 77.5731 36.1892 77.4809 36.0896C77.3887 35.989 77.2621 35.9386 77.101 35.9386C76.9908 35.9386 76.8928 35.9625 76.807 36.0102C76.7222 36.0578 76.655 36.1278 76.6052 36.22C76.5564 36.3111 76.5321 36.4213 76.5321 36.5505ZM78.6824 38V35.5588H79.1577V38H78.6824ZM78.9224 35.1821C78.8398 35.1821 78.7688 35.1546 78.7095 35.0995C78.6512 35.0433 78.6221 34.9766 78.6221 34.8992C78.6221 34.8208 78.6512 34.7541 78.7095 34.699C78.7688 34.6428 78.8398 34.6147 78.9224 34.6147C79.0051 34.6147 79.0755 34.6428 79.1338 34.699C79.1931 34.7541 79.2228 34.8208 79.2228 34.8992C79.2228 34.9766 79.1931 35.0433 79.1338 35.0995C79.0755 35.1546 79.0051 35.1821 78.9224 35.1821ZM79.6969 38V37.6742L81.0192 35.9943V35.972H79.7398V35.5588H81.612V35.9053L80.3405 37.5645V37.5868H81.6565V38H79.6969ZM83.1501 38.0493C82.9096 38.0493 82.7024 37.9979 82.5287 37.8951C82.356 37.7913 82.2225 37.6456 82.1282 37.458C82.0349 37.2694 81.9883 37.0485 81.9883 36.7953C81.9883 36.5452 82.0349 36.3249 82.1282 36.1341C82.2225 35.9434 82.3539 35.7946 82.5223 35.6875C82.6918 35.5805 82.89 35.527 83.1167 35.527C83.2545 35.527 83.388 35.5498 83.5172 35.5954C83.6465 35.6409 83.7625 35.7124 83.8653 35.8099C83.9681 35.9074 84.0491 36.034 84.1085 36.1898C84.1678 36.3445 84.1975 36.5325 84.1975 36.754V36.9224H82.2569V36.5664H83.7318C83.7318 36.4414 83.7064 36.3307 83.6555 36.2343C83.6046 36.1368 83.5331 36.06 83.4409 36.0038C83.3498 35.9477 83.2428 35.9196 83.1199 35.9196C82.9864 35.9196 82.8699 35.9524 82.7703 36.0181C82.6717 36.0827 82.5954 36.1675 82.5414 36.2724C82.4884 36.3762 82.4619 36.4891 82.4619 36.6109V36.8891C82.4619 37.0522 82.4905 37.191 82.5478 37.3055C82.606 37.4199 82.6871 37.5073 82.7909 37.5677C82.8948 37.627 83.0161 37.6567 83.1549 37.6567C83.2449 37.6567 83.327 37.644 83.4012 37.6186C83.4754 37.5921 83.5395 37.5529 83.5935 37.501C83.6476 37.449 83.6889 37.3849 83.7175 37.3086L84.1673 37.3897C84.1312 37.5221 84.0666 37.6382 83.9734 37.7378C83.8812 37.8363 83.7652 37.9131 83.6253 37.9682C83.4865 38.0223 83.3281 38.0493 83.1501 38.0493ZM85.5894 38.0477C85.3923 38.0477 85.2164 37.9974 85.0617 37.8967C84.9081 37.795 84.7873 37.6503 84.6993 37.4628C84.6125 37.2742 84.569 37.048 84.569 36.7842C84.569 36.5203 84.613 36.2947 84.7009 36.1071C84.7899 35.9196 84.9118 35.776 85.0665 35.6764C85.2212 35.5768 85.3965 35.527 85.5925 35.527C85.744 35.527 85.8659 35.5524 85.9581 35.6033C86.0513 35.6531 86.1234 35.7114 86.1742 35.7781C86.2261 35.8449 86.2664 35.9037 86.295 35.9545H86.3236V34.7451H86.7988V38H86.3347V37.6202H86.295C86.2664 37.6721 86.2251 37.7314 86.171 37.7982C86.1181 37.8649 86.045 37.9232 85.9517 37.973C85.8585 38.0228 85.7377 38.0477 85.5894 38.0477ZM85.6942 37.6424C85.8309 37.6424 85.9464 37.6064 86.0407 37.5343C86.1361 37.4612 86.2081 37.36 86.2569 37.2308C86.3067 37.1015 86.3316 36.951 86.3316 36.7794C86.3316 36.6099 86.3072 36.4615 86.2585 36.3344C86.2097 36.2072 86.1382 36.1082 86.0439 36.0372C85.9496 35.9662 85.8331 35.9307 85.6942 35.9307C85.5512 35.9307 85.432 35.9678 85.3367 36.042C85.2413 36.1161 85.1692 36.2173 85.1205 36.3455C85.0728 36.4737 85.049 36.6183 85.049 36.7794C85.049 36.9426 85.0734 37.0893 85.1221 37.2196C85.1708 37.35 85.2429 37.4533 85.3382 37.5296C85.4347 37.6048 85.5533 37.6424 85.6942 37.6424ZM88.563 38V35.5588H89.0224V35.9466H89.0478C89.0923 35.8152 89.1707 35.7119 89.283 35.6367C89.3964 35.5604 89.5246 35.5222 89.6676 35.5222C89.6973 35.5222 89.7323 35.5233 89.7725 35.5254C89.8138 35.5275 89.8462 35.5302 89.8695 35.5334V35.9879C89.8504 35.9826 89.8165 35.9768 89.7678 35.9704C89.719 35.963 89.6703 35.9593 89.6215 35.9593C89.5092 35.9593 89.4091 35.9832 89.3212 36.0308C89.2343 36.0775 89.1654 36.1426 89.1145 36.2263C89.0637 36.309 89.0383 36.4033 89.0383 36.5092V38H88.563ZM91.1962 38.0493C90.9557 38.0493 90.7485 37.9979 90.5748 37.8951C90.4021 37.7913 90.2686 37.6456 90.1743 37.458C90.081 37.2694 90.0344 37.0485 90.0344 36.7953C90.0344 36.5452 90.081 36.3249 90.1743 36.1341C90.2686 35.9434 90.3999 35.7946 90.5684 35.6875C90.7379 35.5805 90.9361 35.527 91.1628 35.527C91.3006 35.527 91.4341 35.5498 91.5633 35.5954C91.6926 35.6409 91.8086 35.7124 91.9114 35.8099C92.0142 35.9074 92.0952 36.034 92.1546 36.1898C92.2139 36.3445 92.2436 36.5325 92.2436 36.754V36.9224H90.303V36.5664H91.7779C91.7779 36.4414 91.7525 36.3307 91.7016 36.2343C91.6507 36.1368 91.5792 36.06 91.487 36.0038C91.3959 35.9477 91.2889 35.9196 91.166 35.9196C91.0325 35.9196 90.9159 35.9524 90.8163 36.0181C90.7178 36.0827 90.6415 36.1675 90.5875 36.2724C90.5345 36.3762 90.508 36.4891 90.508 36.6109V36.8891C90.508 37.0522 90.5366 37.191 90.5938 37.3055C90.6521 37.4199 90.7332 37.5073 90.837 37.5677C90.9408 37.627 91.0622 37.6567 91.201 37.6567C91.291 37.6567 91.3731 37.644 91.4473 37.6186C91.5215 37.5921 91.5856 37.5529 91.6396 37.501C91.6937 37.449 91.735 37.3849 91.7636 37.3086L92.2134 37.3897C92.1773 37.5221 92.1127 37.6382 92.0195 37.7378C91.9273 37.8363 91.8113 37.9131 91.6714 37.9682C91.5326 38.0223 91.3742 38.0493 91.1962 38.0493ZM93.432 38.054C93.2773 38.054 93.1375 38.0254 93.0124 37.9682C92.8874 37.9099 92.7883 37.8257 92.7152 37.7155C92.6432 37.6053 92.6072 37.4702 92.6072 37.3102C92.6072 37.1725 92.6336 37.0591 92.6866 36.9701C92.7396 36.8811 92.8111 36.8107 92.9012 36.7587C92.9912 36.7068 93.0919 36.6676 93.2031 36.6411C93.3144 36.6146 93.4278 36.5945 93.5433 36.5807C93.6895 36.5638 93.8081 36.55 93.8993 36.5394C93.9904 36.5278 94.0566 36.5092 94.0979 36.4838C94.1393 36.4584 94.1599 36.417 94.1599 36.3598V36.3487C94.1599 36.2099 94.1207 36.1024 94.0423 36.0261C93.965 35.9498 93.8495 35.9116 93.6958 35.9116C93.5358 35.9116 93.4098 35.9471 93.3176 36.0181C93.2265 36.088 93.1634 36.1659 93.1285 36.2517L92.6819 36.15C92.7348 36.0017 92.8122 35.882 92.9139 35.7908C93.0167 35.6987 93.1348 35.6319 93.2683 35.5906C93.4018 35.5482 93.5422 35.527 93.6895 35.527C93.787 35.527 93.8903 35.5387 93.9994 35.562C94.1096 35.5842 94.2124 35.6256 94.3077 35.6859C94.4041 35.7463 94.4831 35.8327 94.5445 35.945C94.606 36.0563 94.6367 36.2009 94.6367 36.3789V38H94.1726V37.6662H94.1536C94.1228 37.7277 94.0767 37.7881 94.0153 37.8474C93.9538 37.9068 93.8749 37.956 93.7785 37.9952C93.6821 38.0344 93.5666 38.054 93.432 38.054ZM93.5353 37.6726C93.6667 37.6726 93.779 37.6466 93.8723 37.5947C93.9666 37.5428 94.0381 37.475 94.0868 37.3913C94.1366 37.3065 94.1615 37.2159 94.1615 37.1195V36.8048C94.1446 36.8218 94.1117 36.8377 94.063 36.8525C94.0153 36.8663 93.9607 36.8785 93.8993 36.8891C93.8378 36.8986 93.778 36.9076 93.7197 36.9161C93.6614 36.9235 93.6127 36.9299 93.5735 36.9352C93.4813 36.9468 93.397 36.9664 93.3208 36.994C93.2455 37.0215 93.1851 37.0612 93.1396 37.1132C93.0951 37.164 93.0728 37.2318 93.0728 37.3166C93.0728 37.4342 93.1163 37.5232 93.2031 37.5836C93.29 37.6429 93.4008 37.6726 93.5353 37.6726ZM95.6956 34.7451V38H95.2204V34.7451H95.6956ZM98.4731 38.0493C98.2325 38.0493 98.0254 37.9979 97.8516 37.8951C97.6789 37.7913 97.5454 37.6456 97.4511 37.458C97.3579 37.2694 97.3113 37.0485 97.3113 36.7953C97.3113 36.5452 97.3579 36.3249 97.4511 36.1341C97.5454 35.9434 97.6768 35.7946 97.8453 35.6875C98.0148 35.5805 98.2129 35.527 98.4397 35.527C98.5774 35.527 98.7109 35.5498 98.8402 35.5954C98.9695 35.6409 99.0855 35.7124 99.1883 35.8099C99.291 35.9074 99.3721 36.034 99.4314 36.1898C99.4908 36.3445 99.5204 36.5325 99.5204 36.754V36.9224H97.5799V36.5664H99.0547C99.0547 36.4414 99.0293 36.3307 98.9785 36.2343C98.9276 36.1368 98.8561 36.06 98.7639 36.0038C98.6728 35.9477 98.5658 35.9196 98.4429 35.9196C98.3094 35.9196 98.1928 35.9524 98.0932 36.0181C97.9947 36.0827 97.9184 36.1675 97.8643 36.2724C97.8114 36.3762 97.7849 36.4891 97.7849 36.6109V36.8891C97.7849 37.0522 97.8135 37.191 97.8707 37.3055C97.929 37.4199 98.01 37.5073 98.1139 37.5677C98.2177 37.627 98.339 37.6567 98.4778 37.6567C98.5679 37.6567 98.65 37.644 98.7242 37.6186C98.7983 37.5921 98.8624 37.5529 98.9165 37.501C98.9705 37.449 99.0118 37.3849 99.0404 37.3086L99.4902 37.3897C99.4542 37.5221 99.3896 37.6382 99.2963 37.7378C99.2041 37.8363 99.0881 37.9131 98.9483 37.9682C98.8095 38.0223 98.6511 38.0493 98.4731 38.0493ZM101.828 36.1548L101.397 36.2311C101.379 36.176 101.35 36.1235 101.311 36.0737C101.273 36.0239 101.221 35.9832 101.155 35.9514C101.09 35.9196 101.008 35.9037 100.909 35.9037C100.775 35.9037 100.662 35.9339 100.572 35.9943C100.482 36.0536 100.437 36.1304 100.437 36.2247C100.437 36.3063 100.467 36.372 100.528 36.4218C100.588 36.4716 100.686 36.5124 100.82 36.5442L101.208 36.6332C101.433 36.6851 101.6 36.7651 101.71 36.8732C101.82 36.9812 101.875 37.1216 101.875 37.2943C101.875 37.4406 101.833 37.5709 101.748 37.6853C101.665 37.7987 101.548 37.8877 101.397 37.9523C101.248 38.017 101.074 38.0493 100.877 38.0493C100.604 38.0493 100.381 37.991 100.208 37.8744C100.036 37.7568 99.9296 37.59 99.8904 37.3738L100.35 37.3039C100.378 37.4236 100.437 37.5142 100.526 37.5757C100.615 37.636 100.731 37.6662 100.874 37.6662C101.03 37.6662 101.154 37.6339 101.248 37.5693C101.341 37.5036 101.388 37.4236 101.388 37.3293C101.388 37.253 101.359 37.1889 101.302 37.137C101.246 37.0851 101.159 37.0459 101.043 37.0194L100.629 36.9288C100.402 36.8769 100.233 36.7942 100.124 36.6809C100.016 36.5675 99.9619 36.4239 99.9619 36.2502C99.9619 36.1061 100.002 35.98 100.083 35.8719C100.163 35.7638 100.274 35.6796 100.416 35.6192C100.558 35.5577 100.721 35.527 100.904 35.527C101.168 35.527 101.376 35.5842 101.527 35.6987C101.679 35.812 101.779 35.9641 101.828 36.1548ZM103.488 35.5588V35.9402H102.155V35.5588H103.488ZM102.512 34.9739H102.988V37.2832C102.988 37.3754 103.001 37.4448 103.029 37.4914C103.056 37.537 103.092 37.5682 103.135 37.5852C103.18 37.6011 103.228 37.609 103.28 37.609C103.318 37.609 103.352 37.6064 103.38 37.6011C103.409 37.5958 103.431 37.5915 103.447 37.5884L103.533 37.9809C103.505 37.9915 103.466 38.0021 103.415 38.0127C103.364 38.0244 103.301 38.0307 103.224 38.0318C103.099 38.0339 102.983 38.0117 102.875 37.965C102.767 37.9184 102.679 37.8464 102.613 37.7489C102.546 37.6514 102.512 37.529 102.512 37.3818V34.9739ZM104.675 38.054C104.52 38.054 104.381 38.0254 104.256 37.9682C104.13 37.9099 104.031 37.8257 103.958 37.7155C103.886 37.6053 103.85 37.4702 103.85 37.3102C103.85 37.1725 103.877 37.0591 103.93 36.9701C103.983 36.8811 104.054 36.8107 104.144 36.7587C104.234 36.7068 104.335 36.6676 104.446 36.6411C104.557 36.6146 104.671 36.5945 104.786 36.5807C104.933 36.5638 105.051 36.55 105.142 36.5394C105.233 36.5278 105.3 36.5092 105.341 36.4838C105.382 36.4584 105.403 36.417 105.403 36.3598V36.3487C105.403 36.2099 105.364 36.1024 105.285 36.0261C105.208 35.9498 105.093 35.9116 104.939 35.9116C104.779 35.9116 104.653 35.9471 104.561 36.0181C104.47 36.088 104.407 36.1659 104.372 36.2517L103.925 36.15C103.978 36.0017 104.055 35.882 104.157 35.7908C104.26 35.6987 104.378 35.6319 104.511 35.5906C104.645 35.5482 104.785 35.527 104.933 35.527C105.03 35.527 105.133 35.5387 105.242 35.562C105.353 35.5842 105.455 35.6256 105.551 35.6859C105.647 35.7463 105.726 35.8327 105.788 35.945C105.849 36.0563 105.88 36.2009 105.88 36.3789V38H105.416V37.6662H105.397C105.366 37.7277 105.32 37.7881 105.258 37.8474C105.197 37.9068 105.118 37.956 105.022 37.9952C104.925 38.0344 104.81 38.054 104.675 38.054ZM104.778 37.6726C104.91 37.6726 105.022 37.6466 105.115 37.5947C105.21 37.5428 105.281 37.475 105.33 37.3913C105.38 37.3065 105.405 37.2159 105.405 37.1195V36.8048C105.388 36.8218 105.355 36.8377 105.306 36.8525C105.258 36.8663 105.204 36.8785 105.142 36.8891C105.081 36.8986 105.021 36.9076 104.963 36.9161C104.904 36.9235 104.856 36.9299 104.817 36.9352C104.724 36.9468 104.64 36.9664 104.564 36.994C104.489 37.0215 104.428 37.0612 104.383 37.1132C104.338 37.164 104.316 37.2318 104.316 37.3166C104.316 37.4342 104.359 37.5232 104.446 37.5836C104.533 37.6429 104.644 37.6726 104.778 37.6726ZM107.603 35.5588V35.9402H106.27V35.5588H107.603ZM106.627 34.9739H107.102V37.2832C107.102 37.3754 107.116 37.4448 107.144 37.4914C107.171 37.537 107.207 37.5682 107.25 37.5852C107.295 37.6011 107.343 37.609 107.395 37.609C107.433 37.609 107.466 37.6064 107.495 37.6011C107.524 37.5958 107.546 37.5915 107.562 37.5884L107.648 37.9809C107.62 37.9915 107.581 38.0021 107.53 38.0127C107.479 38.0244 107.416 38.0307 107.339 38.0318C107.214 38.0339 107.098 38.0117 106.99 37.965C106.882 37.9184 106.794 37.8464 106.727 37.7489C106.661 37.6514 106.627 37.529 106.627 37.3818V34.9739ZM109.105 38.0493C108.865 38.0493 108.658 37.9979 108.484 37.8951C108.311 37.7913 108.178 37.6456 108.083 37.458C107.99 37.2694 107.944 37.0485 107.944 36.7953C107.944 36.5452 107.99 36.3249 108.083 36.1341C108.178 35.9434 108.309 35.7946 108.478 35.6875C108.647 35.5805 108.845 35.527 109.072 35.527C109.21 35.527 109.343 35.5498 109.473 35.5954C109.602 35.6409 109.718 35.7124 109.821 35.8099C109.923 35.9074 110.004 36.034 110.064 36.1898C110.123 36.3445 110.153 36.5325 110.153 36.754V36.9224H108.212V36.5664H109.687C109.687 36.4414 109.662 36.3307 109.611 36.2343C109.56 36.1368 109.488 36.06 109.396 36.0038C109.305 35.9477 109.198 35.9196 109.075 35.9196C108.942 35.9196 108.825 35.9524 108.726 36.0181C108.627 36.0827 108.551 36.1675 108.497 36.2724C108.444 36.3762 108.417 36.4891 108.417 36.6109V36.8891C108.417 37.0522 108.446 37.191 108.503 37.3055C108.561 37.4199 108.642 37.5073 108.746 37.5677C108.85 37.627 108.971 37.6567 109.11 37.6567C109.2 37.6567 109.282 37.644 109.357 37.6186C109.431 37.5921 109.495 37.5529 109.549 37.501C109.603 37.449 109.644 37.3849 109.673 37.3086L110.123 37.3897C110.087 37.5221 110.022 37.6382 109.929 37.7378C109.836 37.8363 109.72 37.9131 109.581 37.9682C109.442 38.0223 109.283 38.0493 109.105 38.0493Z" fill="white"/>
</svg>
