<svg width="37" height="37" viewBox="0 0 37 37" fill="none" xmlns="http://www.w3.org/2000/svg">
<path d="M35.2677 27.2859V35.3154L21.5081 35.2823L35.2677 27.2859ZM15.4603 35.2671L1.62283 35.2335V27.2774L15.4603 35.2671ZM1.62283 24.4619V12.9342L11.5742 18.6795L1.62283 24.4619ZM19.3173 15.2535V2.78331L34.4679 11.5303L23.7029 17.7857L19.3173 15.2535ZM18.3927 16.5934L22.0859 18.7256L18.5045 20.8071L14.8113 18.6746L18.3927 16.5934ZM2.42977 11.5262L17.6945 2.65486V15.1228L13.1916 17.7396L2.42977 11.5262ZM17.6945 22.2129V34.6831L2.42977 25.8699L13.1939 19.6144L17.6945 22.2129ZM34.4679 25.8743L19.3173 34.6786V22.2111L23.7056 19.6605L34.4679 25.8743ZM35.2677 12.9414V24.4623L25.3226 18.7206L35.2677 12.9414ZM36.886 11.3929L36.8856 11.3893C36.8649 11.2722 36.8189 11.161 36.7508 11.0635C36.6827 10.966 36.5941 10.8846 36.4913 10.8249L18.7968 0.6091C18.6733 0.537395 18.533 0.499737 18.3902 0.499973C18.2474 0.50021 18.1073 0.53833 17.984 0.610443L0.404141 10.8272C0.281346 10.8985 0.17941 11.0008 0.108498 11.1239C0.0375851 11.247 0.000174518 11.3865 0 11.5285V36.0432C0 36.4898 0.363416 36.8541 0.810074 36.8546L36.0786 36.9401C36.1853 36.9405 36.291 36.9198 36.3897 36.8791C36.4884 36.8385 36.578 36.7788 36.6535 36.7034C36.7289 36.6279 36.7887 36.5383 36.8294 36.4397C36.8701 36.341 36.8908 36.2353 36.8905 36.1286V11.6064C36.8945 11.5804 36.8976 11.554 36.8976 11.5271C36.8976 11.4819 36.8936 11.4372 36.886 11.3929Z" fill="#231F20"/>
</svg>
