<svg width="136" height="40" viewBox="0 0 136 40" fill="none" xmlns="http://www.w3.org/2000/svg">
<g clip-path="url(#clip0_1684_355)">
<path d="M38.0022 11.2215C37.9806 11.101 37.933 10.9867 37.8628 10.8864C37.7927 10.7861 37.7015 10.7023 37.5957 10.6408L19.3658 0.112277C19.2387 0.0377958 19.094 -0.00146484 18.9466 -0.00146484C18.7993 -0.00146484 18.6546 0.0377958 18.5275 0.112277L0.415553 10.6372C0.288932 10.7113 0.183943 10.8174 0.111036 10.9447C0.0381291 11.0721 -0.000152904 11.2163 4.5899e-07 11.363V36.6191C0.000479849 36.8403 0.0885787 37.0524 0.245018 37.2088C0.401457 37.3653 0.613496 37.4534 0.834734 37.4538L37.171 37.5428C37.3929 37.5428 37.6057 37.4546 37.7626 37.2977C37.9195 37.1409 38.0076 36.9281 38.0076 36.7062V11.4429C38.0094 11.4157 38.0094 11.3884 38.0076 11.3612C38.007 11.3144 38.0027 11.2677 37.9949 11.2215M36.3272 12.8184V24.6879L26.0818 18.7722L36.3272 12.8184ZM35.5034 26.1414L19.8975 35.2146V22.3688L24.4196 19.7394L35.5034 26.1414ZM18.2226 22.3706V35.2182L2.5042 26.1305L13.5935 19.6849L18.2226 22.3706ZM2.5042 11.3594L18.2299 2.21907V15.0612L13.5916 17.7614L2.5042 11.3594ZM18.9485 16.5801L22.7592 18.7776L19.07 20.9207L15.2593 18.725L18.9485 16.5801ZM19.9011 15.1992V2.3588L35.507 11.3703L24.4196 17.8086L19.9011 15.1992ZM1.67128 24.6788V12.8111L11.924 18.7286L1.67128 24.6788ZM15.9289 35.8116L1.67128 35.7844V27.5822L15.9289 35.8116ZM36.3345 27.5895V35.8624L22.1585 35.8279L36.3345 27.5895Z" fill="white"/>
<path d="M48.3672 29.3753V8.16943H52.2088V17.1464H62.035V8.16943H65.8875V29.3753H62.035V20.3656H52.2088V29.3753H48.3672Z" fill="white"/>
<path d="M89.0097 18.7722C89.0097 21.0574 88.5832 23.0124 87.7303 24.6371C86.9486 26.1863 85.742 27.481 84.2517 28.3698C82.7264 29.2216 81.0084 29.6689 79.2614 29.6689C77.5144 29.6689 75.7964 29.2216 74.2712 28.3698C72.7805 27.4789 71.574 26.1824 70.7925 24.6317C69.9396 23.007 69.5132 21.0556 69.5132 18.7777C69.5132 16.4997 69.9396 14.5441 70.7925 12.9109C71.5736 11.3613 72.7804 10.0665 74.2712 9.17824C75.797 8.32808 77.5147 7.88184 79.2614 7.88184C81.0081 7.88184 82.7258 8.32808 84.2517 9.17824C85.742 10.067 86.9486 11.3617 87.7303 12.9109C88.5832 14.5369 89.0097 16.4924 89.0097 18.7777M85.1463 18.7777C85.1463 17.1675 84.8965 15.8089 84.3968 14.702C83.9659 13.6786 83.2441 12.8041 82.3209 12.1869C81.4 11.6278 80.3433 11.3322 79.266 11.3322C78.1886 11.3322 77.1319 11.6278 76.211 12.1869C75.2884 12.8031 74.5666 13.6763 74.1351 14.6984C73.6342 15.8077 73.3838 17.1663 73.3838 18.774C73.3838 20.3818 73.6342 21.7397 74.1351 22.8479C74.5673 23.8716 75.2903 24.7461 76.2146 25.363C77.136 25.9209 78.1925 26.2159 79.2696 26.2159C80.3467 26.2159 81.4032 25.9209 82.3245 25.363C83.2478 24.7451 83.9695 23.87 84.4005 22.8461C84.9001 21.7379 85.1499 20.38 85.1499 18.7722" fill="white"/>
<path d="M92.6553 8.16943H97.3552L103.65 23.5339H103.899L110.196 8.16943H114.895V29.3753H111.21V14.8056H111.012L105.153 29.3117H102.398L96.5368 14.7747H96.3408V29.3753H92.6553V8.16943Z" fill="white"/>
<path d="M68.3101 35.534H69.3644V38.5263H69.7708V35.534H70.8251V35.1729H68.3101V35.534Z" fill="white"/>
<path d="M72.6564 36.1399C72.5244 36.0552 72.376 35.9995 72.2208 35.9766C72.0657 35.9538 71.9075 35.9642 71.7567 36.0073C71.606 36.0504 71.4661 36.1252 71.3465 36.2266C71.2269 36.328 71.1303 36.4537 71.0631 36.5954C70.9641 36.8102 70.915 37.0448 70.9197 37.2813C70.915 37.5167 70.964 37.75 71.0631 37.9636C71.1523 38.1529 71.2935 38.313 71.4702 38.425C71.6469 38.5371 71.8519 38.5966 72.0611 38.5966C72.2704 38.5966 72.4754 38.5371 72.6521 38.425C72.8288 38.313 72.97 38.1529 73.0592 37.9636C73.1591 37.7503 73.2082 37.5168 73.2026 37.2813C73.2082 37.0447 73.1591 36.81 73.0592 36.5954C72.9709 36.4084 72.8312 36.2504 72.6564 36.1399ZM72.7326 37.7495C72.6846 37.887 72.5991 38.0083 72.4858 38.0997C72.3607 38.186 72.2122 38.2322 72.0602 38.2322C71.9082 38.2322 71.7598 38.186 71.6347 38.0997C71.52 38.0073 71.4344 37.8838 71.3879 37.7441C71.3323 37.5943 71.3047 37.4356 71.3063 37.2759C71.305 37.1156 71.3326 36.9564 71.3879 36.8059C71.4357 36.6678 71.5212 36.5458 71.6347 36.4538C71.7594 36.3666 71.908 36.3197 72.0602 36.3197C72.2125 36.3197 72.361 36.3666 72.4858 36.4538C72.5988 36.5464 72.6841 36.6681 72.7326 36.8059C72.7872 36.9565 72.8143 37.1157 72.8124 37.2759C72.8146 37.4355 72.7875 37.5942 72.7326 37.7441V37.7495Z" fill="white"/>
<path d="M75.7992 36.0112H75.3219L74.2205 37.1308H74.1751V35.1729H73.7886V38.5263H74.1751V37.5845L74.4455 37.3341L75.3873 38.5263H75.879L74.7376 37.0855L75.7992 36.0112Z" fill="white"/>
<path d="M77.9476 36.2564C77.8478 36.1617 77.729 36.0893 77.5992 36.0441C77.4742 36.001 77.343 35.9789 77.2108 35.9787C77.0003 35.9745 76.7932 36.0326 76.6156 36.1457C76.4434 36.2594 76.3063 36.4191 76.22 36.6066C76.1221 36.8205 76.0738 37.0537 76.0785 37.2889C76.0734 37.5224 76.1218 37.7539 76.22 37.9658C76.3077 38.1528 76.4484 38.31 76.6247 38.4176C76.8141 38.5291 77.031 38.585 77.2507 38.5791C77.4074 38.581 77.563 38.554 77.7098 38.4993C77.84 38.4515 77.9578 38.3752 78.0546 38.2761C78.1462 38.1828 78.214 38.0689 78.2524 37.944L77.8786 37.8387C77.851 37.9204 77.8049 37.9945 77.7438 38.0552C77.6827 38.116 77.6083 38.1618 77.5266 38.189C77.4378 38.219 77.3445 38.2337 77.2507 38.2325C77.1066 38.2357 76.9643 38.1999 76.8388 38.1291C76.7189 38.0592 76.6228 37.9549 76.563 37.8297C76.5001 37.695 76.4673 37.5482 76.4668 37.3996H78.2924V37.2363C78.2979 37.0343 78.2659 36.8331 78.198 36.6429C78.1451 36.4966 78.0594 36.3644 77.9476 36.2564ZM76.4668 37.0657C76.4747 36.9511 76.5042 36.839 76.5539 36.7354C76.6127 36.6161 76.7015 36.5142 76.8116 36.4396C76.9299 36.3616 77.0692 36.3217 77.2108 36.3253C77.3387 36.3226 77.4647 36.3566 77.5738 36.4233C77.677 36.4864 77.7601 36.5777 77.8133 36.6864C77.8708 36.8044 77.8994 36.9344 77.8968 37.0657H76.4668Z" fill="white"/>
<path d="M80.4683 36.0822C80.3305 36.0109 80.177 35.9754 80.0219 35.9788C79.8583 35.9719 79.6962 36.0129 79.5556 36.0967C79.4383 36.1717 79.3451 36.2788 79.287 36.4052H79.2543V36.0114H78.8823V38.5265H79.267V37.0186C79.2634 36.8893 79.2928 36.7613 79.3523 36.6466C79.4027 36.5475 79.4818 36.466 79.5791 36.4125C79.6803 36.3571 79.7941 36.329 79.9094 36.3308C79.9877 36.3265 80.0661 36.3392 80.1391 36.368C80.212 36.3969 80.2779 36.4411 80.3322 36.4978C80.4416 36.6262 80.4969 36.7921 80.4865 36.9605V38.532H80.873V36.9278C80.8791 36.7453 80.8424 36.5638 80.7659 36.3979C80.7012 36.2648 80.5974 36.1546 80.4683 36.0822Z" fill="white"/>
<path d="M81.7768 35.0674C81.7408 35.0667 81.7051 35.0732 81.6717 35.0866C81.6384 35.1 81.6081 35.12 81.5826 35.1455C81.557 35.1682 81.5365 35.1962 81.5224 35.2275C81.5083 35.2587 81.501 35.2926 81.501 35.3269C81.5014 35.3612 81.5088 35.395 81.5229 35.4262C81.5369 35.4574 81.5573 35.4854 81.5826 35.5084C81.6084 35.5332 81.6388 35.5528 81.6721 35.5658C81.7054 35.5789 81.741 35.5853 81.7768 35.5846C81.849 35.5856 81.9187 35.5582 81.971 35.5084C81.9961 35.4853 82.0162 35.4573 82.0299 35.426C82.0437 35.3948 82.0508 35.3611 82.0508 35.3269C82.0511 35.2928 82.0441 35.2589 82.0304 35.2276C82.0166 35.1963 81.9964 35.1683 81.971 35.1455C81.9454 35.1202 81.9151 35.1003 81.8817 35.0869C81.8484 35.0735 81.8127 35.0669 81.7768 35.0674Z" fill="white"/>
<path d="M81.9671 36.0112H81.5806V38.5263H81.9671V36.0112Z" fill="white"/>
<path d="M83.1397 38.1398L84.5279 36.3197V36.0112H82.6479V36.3723H84.0288V36.3977L82.6025 38.2323V38.5263H84.5732V38.1652H83.1397V38.1398Z" fill="white"/>
<path d="M86.8522 36.2564C86.7524 36.1617 86.6337 36.0894 86.5038 36.0441C86.3788 36.0011 86.2476 35.9791 86.1155 35.9788C85.9049 35.9742 85.6978 36.0323 85.5203 36.1457C85.347 36.2588 85.2093 36.4186 85.1229 36.6066C85.025 36.8205 84.9766 37.0537 84.9813 37.2889C84.9762 37.5224 85.0246 37.7539 85.1229 37.9658C85.2111 38.1524 85.3517 38.3094 85.5275 38.4176C85.7171 38.5286 85.9339 38.5846 86.1536 38.5791C86.3108 38.5813 86.4671 38.5542 86.6145 38.4993C86.7439 38.4511 86.861 38.3749 86.9575 38.2761C87.0502 38.1834 87.1187 38.0694 87.1571 37.944L86.7833 37.8388C86.7531 37.9212 86.7054 37.9961 86.6435 38.0583C86.5827 38.1172 86.5095 38.1618 86.4294 38.189C86.3406 38.2191 86.2473 38.2339 86.1536 38.2325C86.0101 38.2356 85.8684 38.1999 85.7435 38.1291C85.6231 38.0598 85.5269 37.9553 85.4676 37.8297C85.4047 37.695 85.3719 37.5483 85.3715 37.3996H87.1952V37.2363C87.2005 37.0345 87.1691 36.8335 87.1026 36.6429C87.0497 36.4967 86.9641 36.3645 86.8522 36.2564ZM85.3715 37.0657C85.3783 36.9509 85.4079 36.8387 85.4586 36.7355C85.5168 36.6158 85.6057 36.5137 85.7162 36.4397C85.8345 36.3617 85.9738 36.3218 86.1155 36.3254C86.2433 36.3226 86.3693 36.3566 86.4784 36.4233C86.5808 36.487 86.6631 36.5782 86.7161 36.6865C86.7743 36.8043 86.8035 36.9343 86.8014 37.0657H85.3715Z" fill="white"/>
<path d="M89.5015 36.4104H89.4616C89.4326 36.3669 89.3926 36.3106 89.3418 36.2435C89.2827 36.1677 89.2078 36.1058 89.1222 36.062C89.002 36.0019 88.8682 35.9737 88.7339 35.9804C88.5358 35.9762 88.341 36.0318 88.175 36.1401C88.0085 36.2511 87.877 36.4072 87.7957 36.5901C87.7004 36.8065 87.6539 37.0414 87.6597 37.2778C87.6542 37.5154 87.7006 37.7514 87.7957 37.9692C87.8768 38.1522 88.0076 38.3087 88.1732 38.421C88.3378 38.5293 88.5315 38.585 88.7285 38.5807C88.8622 38.587 88.9952 38.5588 89.115 38.4991C89.2016 38.4546 89.2782 38.3929 89.34 38.3176C89.3926 38.2487 89.4326 38.1906 89.4616 38.1452H89.507V38.5317H89.8808V35.1729H89.4942L89.5015 36.4104ZM89.4235 37.7714C89.3765 37.9049 89.2921 38.0221 89.1803 38.1089C89.0634 38.191 88.924 38.235 88.7811 38.235C88.6382 38.235 88.4988 38.191 88.3819 38.1089C88.2695 38.0185 88.1847 37.8984 88.1369 37.7623C88.0263 37.4494 88.0263 37.1081 88.1369 36.7951C88.1846 36.6615 88.2689 36.5439 88.3801 36.4558C88.4993 36.3762 88.6395 36.3337 88.7829 36.3337C88.9263 36.3337 89.0665 36.3762 89.1858 36.4558C89.2968 36.5399 89.3807 36.6547 89.4271 36.7861C89.5372 37.109 89.5372 37.4593 89.4271 37.7823L89.4235 37.7714Z" fill="white"/>
<path d="M92.9986 35.9713C92.8544 35.9693 92.7129 36.0104 92.5922 36.0892C92.4784 36.1595 92.391 36.2654 92.3436 36.3904H92.3182V36.0112H91.9443V38.5263H92.3309V36.9348C92.3283 36.8278 92.3573 36.7224 92.4143 36.6318C92.4686 36.5423 92.5465 36.4695 92.6393 36.4213C92.7403 36.3693 92.8525 36.3431 92.966 36.3451C93.0152 36.3449 93.0643 36.3486 93.113 36.356L93.2019 36.3723V35.9785H93.1057L92.9986 35.9713Z" fill="white"/>
<path d="M95.3395 36.2564C95.2394 36.1613 95.1199 36.0889 94.9893 36.0441C94.865 36.001 94.7343 35.9789 94.6028 35.9788C94.3922 35.974 94.185 36.0322 94.0076 36.1457C93.8343 36.2588 93.6965 36.4186 93.6102 36.6066C93.5123 36.8205 93.4639 37.0538 93.4686 37.289C93.4635 37.5224 93.5119 37.754 93.6102 37.9658C93.6978 38.1529 93.8385 38.31 94.0148 38.4177C94.2044 38.5287 94.4212 38.5846 94.6409 38.5792C94.7981 38.5813 94.9544 38.5542 95.1018 38.4993C95.2312 38.4511 95.3483 38.3749 95.4448 38.2761C95.537 38.1833 95.6049 38.0693 95.6426 37.944L95.2796 37.8388C95.2495 37.9212 95.2018 37.9961 95.1399 38.0584C95.079 38.1172 95.0059 38.1618 94.9258 38.189C94.837 38.2191 94.7437 38.2339 94.65 38.2326C94.5064 38.2357 94.3647 38.1999 94.2398 38.1291C94.1195 38.0598 94.0233 37.9553 93.964 37.8297C93.9013 37.6949 93.8679 37.5483 93.866 37.3996H95.6916V37.2363C95.6968 37.0346 95.6655 36.8335 95.599 36.6429C95.5421 36.4965 95.4535 36.3646 95.3395 36.2564ZM93.8588 37.0657C93.8647 36.9508 93.8944 36.8384 93.9459 36.7355C94.0041 36.6158 94.093 36.5137 94.2036 36.4397C94.3217 36.3615 94.4611 36.3216 94.6028 36.3254C94.7307 36.3223 94.8567 36.3563 94.9657 36.4234C95.069 36.4865 95.1521 36.5778 95.2052 36.6865C95.2628 36.8045 95.2914 36.9345 95.2887 37.0657H93.8588Z" fill="white"/>
<path d="M97.8199 36.1237C97.7255 36.0667 97.6216 36.0273 97.5132 36.0075C97.4217 35.9893 97.3288 35.9796 97.2356 35.9785C97.1051 35.9796 96.9753 35.9966 96.849 36.0293C96.7168 36.0641 96.5932 36.1259 96.4861 36.2108C96.3683 36.3068 96.2776 36.4319 96.223 36.5737L96.5859 36.7044C96.638 36.6015 96.7139 36.5126 96.8073 36.4449C96.9346 36.3581 97.0872 36.316 97.241 36.3251C97.3132 36.3192 97.3858 36.3281 97.4544 36.3512C97.5231 36.3743 97.5863 36.4111 97.6402 36.4594C97.6859 36.5102 97.7209 36.5695 97.7434 36.634C97.7658 36.6985 97.7752 36.7669 97.7709 36.835V36.8368C97.7734 36.8628 97.7687 36.889 97.7571 36.9124C97.7456 36.9358 97.7277 36.9555 97.7055 36.9693C97.639 36.999 97.5677 37.0168 97.495 37.0219L97.1321 37.0673C97.0142 37.0818 96.8998 37.1036 96.7837 37.129C96.6738 37.1528 96.5676 37.1912 96.468 37.2433C96.3748 37.2927 96.2965 37.366 96.2411 37.4556C96.1803 37.5627 96.1507 37.6846 96.1558 37.8077C96.1513 37.9551 96.1911 38.1005 96.2702 38.225C96.3464 38.3405 96.4541 38.4318 96.5805 38.4882C96.7162 38.5513 96.8645 38.583 97.0142 38.5807C97.1384 38.5823 97.2617 38.5595 97.3771 38.5136C97.4675 38.477 97.5501 38.4234 97.6203 38.3557C97.6741 38.3033 97.7183 38.2419 97.7509 38.1742H97.7709V38.5154H98.1719V36.8586C98.1793 36.6933 98.1457 36.5287 98.0739 36.3795C98.0134 36.2733 97.9257 36.185 97.8199 36.1237ZM97.7781 37.6153C97.7781 37.7206 97.7499 37.824 97.6965 37.9147C97.6408 38.0136 97.5584 38.0947 97.4588 38.1488C97.3393 38.2119 97.2054 38.2425 97.0704 38.2377C96.9366 38.243 96.8044 38.2075 96.6912 38.1361C96.6417 38.1028 96.6018 38.0571 96.5754 38.0037C96.549 37.9502 96.537 37.8908 96.5405 37.8313C96.5379 37.7892 96.5435 37.747 96.5572 37.7071C96.571 37.6673 96.5924 37.6305 96.6204 37.599C96.6775 37.5385 96.7494 37.4941 96.8291 37.4701C96.9205 37.4399 97.0147 37.4186 97.1103 37.4066L97.2737 37.3867C97.3408 37.3776 97.4098 37.3685 97.4805 37.3558C97.5417 37.3458 97.6023 37.3324 97.662 37.3159C97.7019 37.3076 97.7389 37.2888 97.7691 37.2615L97.7781 37.6153Z" fill="white"/>
<path d="M99.2591 35.1729H98.8726V38.5263H99.2591V35.1729Z" fill="white"/>
<path d="M103.015 36.2564C102.916 36.1617 102.797 36.0894 102.667 36.0441C102.542 36.0011 102.411 35.9791 102.279 35.9788C102.068 35.9742 101.861 36.0323 101.683 36.1457C101.51 36.2588 101.372 36.4186 101.286 36.6066C101.188 36.8205 101.14 37.0537 101.144 37.2889C101.139 37.5224 101.188 37.7539 101.286 37.9658C101.374 38.1524 101.515 38.3094 101.691 38.4176C101.88 38.5286 102.097 38.5846 102.317 38.5791C102.474 38.5813 102.63 38.5542 102.778 38.4993C102.907 38.4511 103.024 38.3749 103.121 38.2761C103.213 38.1834 103.282 38.0694 103.32 37.944L102.946 37.8388C102.916 37.9212 102.868 37.9961 102.807 38.0583C102.746 38.1172 102.673 38.1618 102.592 38.189C102.504 38.2191 102.41 38.2339 102.317 38.2325C102.173 38.2356 102.031 38.1999 101.907 38.1291C101.786 38.0598 101.69 37.9553 101.631 37.8297C101.568 37.695 101.535 37.5483 101.535 37.3996H103.358V37.2363C103.364 37.0345 103.332 36.8335 103.266 36.6429C103.213 36.4967 103.127 36.3645 103.015 36.2564ZM101.535 37.0657C101.541 36.9509 101.571 36.8387 101.622 36.7355C101.68 36.6158 101.769 36.5137 101.879 36.4397C101.998 36.3617 102.137 36.3218 102.279 36.3254C102.406 36.3226 102.532 36.3566 102.641 36.4233C102.744 36.487 102.826 36.5782 102.879 36.6865C102.937 36.8043 102.967 36.9343 102.964 37.0657H101.535Z" fill="white"/>
<path d="M105.108 37.1436L104.734 37.0529C104.616 37.0301 104.505 36.9825 104.407 36.9131C104.373 36.8866 104.345 36.8521 104.327 36.8126C104.308 36.7731 104.3 36.7298 104.302 36.6863C104.302 36.6322 104.316 36.5791 104.343 36.5321C104.37 36.4851 104.408 36.4457 104.454 36.4177C104.569 36.344 104.703 36.3072 104.839 36.3125C104.934 36.3088 105.029 36.3274 105.115 36.3669C105.185 36.3974 105.247 36.444 105.296 36.503C105.336 36.5552 105.367 36.6126 105.391 36.6736L105.739 36.5738C105.684 36.4021 105.578 36.2514 105.434 36.1419C105.262 36.0241 105.056 35.9667 104.848 35.9786C104.686 35.9756 104.524 36.0071 104.375 36.0711C104.244 36.1274 104.131 36.2161 104.044 36.3288C103.964 36.4382 103.922 36.5707 103.925 36.7063C103.92 36.8658 103.978 37.0209 104.086 37.1381C104.226 37.2716 104.402 37.3606 104.592 37.394L105.011 37.492C105.115 37.5102 105.213 37.5559 105.293 37.6245C105.323 37.6529 105.346 37.6873 105.362 37.7254C105.378 37.7635 105.386 37.8045 105.385 37.8458C105.384 37.9017 105.368 37.9564 105.34 38.0048C105.313 38.0533 105.273 38.0941 105.226 38.1235C105.098 38.2057 104.947 38.2457 104.796 38.2378C104.66 38.2446 104.525 38.2091 104.411 38.1362C104.31 38.0624 104.239 37.9539 104.213 37.8313L103.85 37.9239C103.867 38.0229 103.904 38.1174 103.959 38.2014C104.014 38.2855 104.085 38.3572 104.169 38.412C104.361 38.5296 104.582 38.5877 104.806 38.579C104.983 38.5826 105.158 38.5492 105.32 38.481C105.457 38.4236 105.576 38.3309 105.665 38.2124C105.746 38.1 105.789 37.9646 105.788 37.8259C105.791 37.7465 105.778 37.6673 105.75 37.593C105.721 37.5188 105.678 37.4511 105.623 37.394C105.478 37.2642 105.299 37.1774 105.108 37.1436Z" fill="white"/>
<path d="M107.354 38.1778C107.319 38.1811 107.284 38.1811 107.249 38.1778C107.194 38.1777 107.139 38.1692 107.087 38.1524C107.034 38.1325 106.99 38.0937 106.964 38.0435C106.926 37.9675 106.909 37.883 106.915 37.7985V36.3323H107.459V36.0038H106.915V35.4014H106.528V36.0038H106.156V36.3323H106.536V37.9038C106.531 38.0323 106.566 38.1592 106.637 38.2667C106.698 38.3606 106.783 38.4369 106.882 38.4881C106.983 38.5346 107.092 38.5588 107.203 38.5588C107.264 38.5597 107.325 38.5549 107.385 38.5443C107.422 38.5361 107.458 38.5258 107.494 38.5135L107.416 38.1669L107.354 38.1778Z" fill="white"/>
<path d="M109.582 36.1237C109.488 36.0667 109.385 36.0273 109.277 36.0075C109.185 35.9893 109.092 35.9796 108.998 35.9785C108.867 35.9796 108.738 35.9966 108.611 36.0293C108.479 36.0645 108.356 36.1262 108.248 36.2108C108.131 36.3068 108.04 36.4319 107.985 36.5737L108.348 36.7044C108.401 36.6018 108.477 36.513 108.57 36.4449C108.697 36.3583 108.849 36.3163 109.003 36.3251C109.075 36.3192 109.148 36.3281 109.217 36.3512C109.285 36.3743 109.349 36.4111 109.403 36.4594C109.448 36.5102 109.483 36.5695 109.506 36.634C109.528 36.6985 109.537 36.7669 109.533 36.835V36.8368C109.536 36.8628 109.531 36.889 109.519 36.9124C109.508 36.9358 109.49 36.9555 109.468 36.9693C109.401 36.9992 109.33 37.017 109.257 37.0219L108.894 37.0673C108.778 37.0818 108.662 37.1036 108.546 37.129C108.437 37.1525 108.331 37.191 108.232 37.2433C108.138 37.2921 108.059 37.3655 108.003 37.4556C107.943 37.5627 107.913 37.6846 107.918 37.8077C107.912 37.9507 107.949 38.0922 108.025 38.2137C108.101 38.3351 108.212 38.4308 108.343 38.4882C108.479 38.5511 108.627 38.5827 108.776 38.5807C108.904 38.5837 109.03 38.5609 109.148 38.5136C109.239 38.4774 109.322 38.4238 109.392 38.3557C109.445 38.3028 109.49 38.2415 109.524 38.1742H109.542V38.5154H109.929V36.8586C109.936 36.6933 109.902 36.5287 109.831 36.3795C109.772 36.274 109.686 36.1858 109.582 36.1237ZM109.54 37.6153C109.541 37.7205 109.513 37.8239 109.461 37.9147C109.404 38.0133 109.321 38.0943 109.221 38.1488C109.102 38.2116 108.969 38.2423 108.835 38.2377C108.7 38.2429 108.567 38.2075 108.453 38.1361C108.404 38.1025 108.365 38.0568 108.338 38.0034C108.312 37.95 108.3 37.8907 108.303 37.8313C108.298 37.7464 108.327 37.6632 108.383 37.599C108.44 37.5385 108.513 37.4941 108.593 37.4701C108.684 37.4397 108.778 37.4184 108.873 37.4066L109.036 37.3867C109.103 37.3776 109.172 37.3685 109.245 37.3558C109.306 37.3457 109.366 37.3324 109.426 37.3159C109.466 37.3081 109.503 37.2892 109.533 37.2615L109.54 37.6153Z" fill="white"/>
<path d="M111.631 38.1778C111.596 38.1811 111.561 38.1811 111.526 38.1778C111.471 38.1777 111.417 38.1692 111.364 38.1524C111.311 38.1325 111.267 38.0937 111.241 38.0435C111.204 37.9675 111.187 37.883 111.192 37.7985V36.3323H111.736V36.0038H111.192V35.4014H110.806V36.0038H110.426V36.3323H110.806V37.9038C110.801 38.0323 110.836 38.1592 110.907 38.2667C110.973 38.3598 111.063 38.4337 111.167 38.4808C111.267 38.5272 111.376 38.5513 111.486 38.5516C111.547 38.5524 111.608 38.5476 111.667 38.5371C111.704 38.5288 111.741 38.5185 111.776 38.5062L111.698 38.1596L111.631 38.1778Z" fill="white"/>
<path d="M114.386 37.2363C114.39 37.0344 114.358 36.8333 114.291 36.6429C114.238 36.4966 114.153 36.3644 114.041 36.2564C113.941 36.1617 113.822 36.0893 113.692 36.0441C113.567 36.0011 113.436 35.979 113.304 35.9787C113.094 35.9745 112.887 36.0326 112.709 36.1457C112.536 36.2587 112.399 36.4185 112.313 36.6066C112.215 36.8205 112.167 37.0537 112.172 37.2889C112.167 37.5224 112.215 37.7539 112.313 37.9658C112.401 38.1523 112.541 38.3093 112.716 38.4176C112.906 38.5288 113.124 38.5848 113.344 38.5791C113.501 38.581 113.656 38.554 113.803 38.4993C113.933 38.4511 114.051 38.3749 114.148 38.2761C114.239 38.1828 114.307 38.0689 114.346 37.944L113.972 37.8387C113.944 37.92 113.897 37.9937 113.836 38.0543C113.775 38.115 113.701 38.161 113.62 38.189C113.531 38.219 113.438 38.2337 113.344 38.2325C113.2 38.2357 113.058 38.1999 112.932 38.1291C112.812 38.0592 112.716 37.9549 112.656 37.8297C112.593 37.695 112.561 37.5482 112.56 37.3996H114.386V37.2363ZM112.56 37.0657C112.567 36.9509 112.597 36.8386 112.647 36.7354C112.706 36.6161 112.795 36.5142 112.905 36.4396C113.023 36.3616 113.162 36.3217 113.304 36.3253C113.432 36.3226 113.558 36.3566 113.667 36.4233C113.77 36.4869 113.853 36.578 113.907 36.6864C113.964 36.8044 113.993 36.9344 113.99 37.0657H112.56Z" fill="white"/>
<path d="M135.619 25.6586V20.7137C135.619 20.3257 135.518 19.9442 135.327 19.6063C135.137 19.2683 134.862 18.9854 134.53 18.7848C134.862 18.5842 135.137 18.3012 135.327 17.9633C135.518 17.6253 135.619 17.2439 135.619 16.8558V11.891C135.618 11.7643 135.612 11.6377 135.599 11.5117C135.514 10.5959 135.091 9.74478 134.411 9.12558C133.731 8.50639 132.844 8.16393 131.924 8.16553H124.707H122.167C120.394 8.16553 118.957 9.7987 118.94 11.8275V15.5892H122.626V11.8565H131.924V16.7705H124.653V16.7596H122.488V20.4561H131.924V25.6586H122.624V21.8987H118.938V25.6477H118.918C118.918 26.6281 119.308 27.5683 120.001 28.2615C120.694 28.9547 121.635 29.3441 122.615 29.3441H131.924V29.3659C132.712 29.3656 133.479 29.113 134.113 28.6451C134.747 28.1771 135.214 27.5184 135.446 26.7655C135.56 26.4076 135.618 26.0343 135.619 25.6586Z" fill="white"/>
</g>
<defs>
<clipPath id="clip0_1684_355">
<rect width="135.619" height="40" fill="white"/>
</clipPath>
</defs>
</svg>
