<svg width="131" height="42" viewBox="0 0 131 42" fill="none" xmlns="http://www.w3.org/2000/svg">
<path d="M35.2677 27.2859V35.3154L21.5081 35.2823L35.2677 27.2859ZM15.4603 35.2671L1.62283 35.2335V27.2774L15.4603 35.2671ZM1.62283 24.4619V12.9342L11.5742 18.6795L1.62283 24.4619ZM19.3173 15.2535V2.78331L34.4679 11.5303L23.7029 17.7857L19.3173 15.2535ZM18.3927 16.5934L22.0859 18.7256L18.5045 20.8071L14.8113 18.6746L18.3927 16.5934ZM2.42977 11.5262L17.6945 2.65486V15.1228L13.1916 17.7396L2.42977 11.5262ZM17.6945 22.2129V34.6831L2.42977 25.8699L13.1939 19.6144L17.6945 22.2129ZM34.4679 25.8743L19.3173 34.6786V22.2111L23.7056 19.6605L34.4679 25.8743ZM35.2677 12.9414V24.4623L25.3226 18.7206L35.2677 12.9414ZM36.886 11.3929L36.8856 11.3893C36.8649 11.2722 36.8189 11.161 36.7508 11.0635C36.6827 10.966 36.5941 10.8846 36.4913 10.8249L18.7968 0.6091C18.6733 0.537395 18.533 0.499737 18.3902 0.499973C18.2474 0.50021 18.1073 0.53833 17.984 0.610443L0.404141 10.8272C0.281346 10.8985 0.17941 11.0008 0.108498 11.1239C0.0375851 11.247 0.000174518 11.3865 0 11.5285V36.0432C0 36.4898 0.363416 36.8541 0.810074 36.8546L36.0786 36.9401C36.1853 36.9405 36.291 36.9198 36.3897 36.8791C36.4884 36.8385 36.578 36.7788 36.6535 36.7034C36.7289 36.6279 36.7887 36.5383 36.8294 36.4397C36.8701 36.341 36.8908 36.2353 36.8905 36.1286V11.6064C36.8945 11.5804 36.8976 11.554 36.8976 11.5271C36.8976 11.4819 36.8936 11.4372 36.886 11.3929Z" fill="#231F20"/>
<path d="M47.5388 31.5V10.9167H50.6444V19.8616H60.9059V10.9167H64.0215V31.5H60.9059V22.525H50.6444V31.5H47.5388ZM86.1126 21.2083C86.1126 23.406 85.7106 25.2955 84.9066 26.8768C84.1025 28.4514 83.0003 29.6641 81.6 30.5151C80.2063 31.3593 78.6217 31.7814 76.8461 31.7814C75.0638 31.7814 73.4725 31.3593 72.0722 30.5151C70.6785 29.6641 69.5797 28.448 68.7756 26.8667C67.9716 25.2855 67.5696 23.3993 67.5696 21.2083C67.5696 19.0107 67.9716 17.1245 68.7756 15.55C69.5797 13.9687 70.6785 12.7559 72.0722 11.9117C73.4725 11.0608 75.0638 10.6353 76.8461 10.6353C78.6217 10.6353 80.2063 11.0608 81.6 11.9117C83.0003 12.7559 84.1025 13.9687 84.9066 15.55C85.7106 17.1245 86.1126 19.0107 86.1126 21.2083ZM83.0372 21.2083C83.0372 19.5333 82.7658 18.1229 82.2231 16.9771C81.6871 15.8247 80.95 14.9536 80.012 14.364C79.0807 13.7677 78.0254 13.4695 76.8461 13.4695C75.6602 13.4695 74.6015 13.7677 73.6702 14.364C72.7388 14.9536 72.0018 15.8247 71.4591 16.9771C70.9231 18.1229 70.655 19.5333 70.655 21.2083C70.655 22.8834 70.9231 24.2972 71.4591 25.4496C72.0018 26.5954 72.7388 27.4664 73.6702 28.0627C74.6015 28.6524 75.6602 28.9472 76.8461 28.9472C78.0254 28.9472 79.0807 28.6524 80.012 28.0627C80.95 27.4664 81.6871 26.5954 82.2231 25.4496C82.7658 24.2972 83.0372 22.8834 83.0372 21.2083ZM89.6732 10.9167H93.4421L99.995 26.917H100.236L106.789 10.9167H110.558V31.5H107.603V16.6052H107.412L101.342 31.4698H98.8895L92.819 16.5952H92.6281V31.5H89.6732V10.9167ZM121.646 31.7814C120.266 31.7814 119.033 31.5436 117.948 31.0678C116.869 30.5921 116.015 29.9321 115.385 29.0879C114.762 28.237 114.427 27.252 114.38 26.1331H117.536C117.576 26.7428 117.78 27.2721 118.149 27.721C118.524 28.1633 119.013 28.505 119.616 28.7462C120.219 28.9874 120.889 29.108 121.626 29.108C122.437 29.108 123.154 28.9673 123.777 28.6859C124.407 28.4045 124.899 28.0125 125.255 27.51C125.61 27.0008 125.787 26.4145 125.787 25.7511C125.787 25.061 125.61 24.4546 125.255 23.932C124.906 23.4027 124.394 22.9873 123.717 22.6858C123.047 22.3843 122.236 22.2335 121.285 22.2335H119.546V19.7008H121.285C122.048 19.7008 122.718 19.5634 123.295 19.2887C123.878 19.014 124.333 18.6321 124.662 18.143C124.99 17.6471 125.154 17.0676 125.154 16.4042C125.154 15.7677 125.01 15.2149 124.722 14.7459C124.44 14.2702 124.038 13.8983 123.516 13.6303C123 13.3623 122.39 13.2283 121.687 13.2283C121.017 13.2283 120.39 13.3523 119.807 13.6002C119.231 13.8414 118.762 14.1898 118.4 14.6454C118.038 15.0943 117.844 15.6337 117.817 16.2635H114.812C114.846 15.1513 115.174 14.173 115.797 13.3288C116.427 12.4846 117.258 11.8246 118.29 11.3489C119.321 10.8731 120.467 10.6353 121.727 10.6353C123.047 10.6353 124.186 10.8932 125.144 11.4092C126.109 11.9184 126.853 12.5985 127.375 13.4494C127.905 14.3003 128.166 15.2317 128.159 16.2434C128.166 17.3959 127.844 18.3741 127.194 19.1782C126.551 19.9822 125.693 20.5216 124.621 20.7963V20.9571C125.988 21.1648 127.047 21.7075 127.797 22.5853C128.554 23.463 128.93 24.5518 128.923 25.8517C128.93 26.984 128.615 27.9991 127.978 28.8969C127.348 29.7948 126.487 30.5017 125.395 31.0176C124.303 31.5268 123.053 31.7814 121.646 31.7814ZM65.856 35.6678V35.2451H68.3751V35.6678H67.3595V38.5H66.87V35.6678H65.856ZM69.5187 38.5493C69.2898 38.5493 69.0901 38.4968 68.9195 38.3919C68.7489 38.287 68.6165 38.1403 68.5222 37.9517C68.4279 37.7631 68.3807 37.5427 68.3807 37.2905C68.3807 37.0373 68.4279 36.8158 68.5222 36.6262C68.6165 36.4365 68.7489 36.2893 68.9195 36.1844C69.0901 36.0795 69.2898 36.027 69.5187 36.027C69.7475 36.027 69.9472 36.0795 70.1178 36.1844C70.2884 36.2893 70.4209 36.4365 70.5152 36.6262C70.6095 36.8158 70.6566 37.0373 70.6566 37.2905C70.6566 37.5427 70.6095 37.7631 70.5152 37.9517C70.4209 38.1403 70.2884 38.287 70.1178 38.3919C69.9472 38.4968 69.7475 38.5493 69.5187 38.5493ZM69.5203 38.1503C69.6686 38.1503 69.7915 38.1111 69.889 38.0327C69.9865 37.9543 70.0585 37.85 70.1051 37.7196C70.1528 37.5893 70.1766 37.4458 70.1766 37.2889C70.1766 37.1332 70.1528 36.9901 70.1051 36.8598C70.0585 36.7284 69.9865 36.623 69.889 36.5435C69.7915 36.4641 69.6686 36.4243 69.5203 36.4243C69.3709 36.4243 69.2469 36.4641 69.1484 36.5435C69.0509 36.623 68.9783 36.7284 68.9306 36.8598C68.884 36.9901 68.8607 37.1332 68.8607 37.2889C68.8607 37.4458 68.884 37.5893 68.9306 37.7196C68.9783 37.85 69.0509 37.9543 69.1484 38.0327C69.2469 38.1111 69.3709 38.1503 69.5203 38.1503ZM71.5749 37.672L71.5717 37.0919H71.6544L72.627 36.0588H73.196L72.0866 37.2349H72.0119L71.5749 37.672ZM71.1378 38.5V35.2451H71.613V38.5H71.1378ZM72.6795 38.5L71.8053 37.3398L72.1327 37.0076L73.2627 38.5H72.6795ZM74.5315 38.5493C74.2909 38.5493 74.0838 38.4979 73.91 38.3951C73.7373 38.2913 73.6038 38.1456 73.5095 37.958C73.4163 37.7694 73.3697 37.5485 73.3697 37.2953C73.3697 37.0452 73.4163 36.8249 73.5095 36.6341C73.6038 36.4434 73.7352 36.2946 73.9037 36.1875C74.0732 36.0805 74.2713 36.027 74.4981 36.027C74.6358 36.027 74.7693 36.0498 74.8986 36.0954C75.0279 36.1409 75.1439 36.2124 75.2467 36.3099C75.3494 36.4074 75.4305 36.534 75.4898 36.6898C75.5492 36.8445 75.5788 37.0325 75.5788 37.254V37.4224H73.6383V37.0664H75.1132C75.1132 36.9414 75.0877 36.8307 75.0369 36.7343C74.986 36.6368 74.9145 36.56 74.8223 36.5038C74.7312 36.4477 74.6242 36.4196 74.5013 36.4196C74.3678 36.4196 74.2512 36.4524 74.1516 36.5181C74.0531 36.5827 73.9768 36.6675 73.9227 36.7724C73.8698 36.8762 73.8433 36.9891 73.8433 37.1109V37.3891C73.8433 37.5522 73.8719 37.691 73.9291 37.8055C73.9874 37.9199 74.0684 38.0073 74.1723 38.0677C74.2761 38.127 74.3974 38.1567 74.5362 38.1567C74.6263 38.1567 74.7084 38.144 74.7826 38.1186C74.8567 38.0921 74.9208 38.0529 74.9749 38.001C75.0289 37.949 75.0702 37.8849 75.0988 37.8086L75.5486 37.8897C75.5126 38.0221 75.448 38.1382 75.3547 38.2378C75.2625 38.3363 75.1465 38.4131 75.0067 38.4682C74.8679 38.5223 74.7095 38.5493 74.5315 38.5493ZM76.5321 37.0505V38.5H76.0568V36.0588H76.513V36.4561H76.5432C76.5993 36.3269 76.6873 36.223 76.807 36.1446C76.9278 36.0662 77.0798 36.027 77.2631 36.027C77.4295 36.027 77.5752 36.062 77.7002 36.1319C77.8252 36.2008 77.9222 36.3036 77.9911 36.4402C78.0599 36.5769 78.0944 36.7459 78.0944 36.9472V38.5H77.6191V37.0044C77.6191 36.8275 77.5731 36.6892 77.4809 36.5896C77.3887 36.489 77.2621 36.4386 77.101 36.4386C76.9908 36.4386 76.8928 36.4625 76.807 36.5102C76.7222 36.5578 76.655 36.6278 76.6052 36.72C76.5564 36.8111 76.5321 36.9213 76.5321 37.0505ZM78.6824 38.5V36.0588H79.1577V38.5H78.6824ZM78.9224 35.6821C78.8398 35.6821 78.7688 35.6546 78.7095 35.5995C78.6512 35.5433 78.6221 35.4766 78.6221 35.3992C78.6221 35.3208 78.6512 35.2541 78.7095 35.199C78.7688 35.1428 78.8398 35.1147 78.9224 35.1147C79.0051 35.1147 79.0755 35.1428 79.1338 35.199C79.1931 35.2541 79.2228 35.3208 79.2228 35.3992C79.2228 35.4766 79.1931 35.5433 79.1338 35.5995C79.0755 35.6546 79.0051 35.6821 78.9224 35.6821ZM79.6969 38.5V38.1742L81.0192 36.4943V36.472H79.7398V36.0588H81.612V36.4053L80.3405 38.0645V38.0868H81.6565V38.5H79.6969ZM83.1501 38.5493C82.9096 38.5493 82.7024 38.4979 82.5287 38.3951C82.356 38.2913 82.2225 38.1456 82.1282 37.958C82.0349 37.7694 81.9883 37.5485 81.9883 37.2953C81.9883 37.0452 82.0349 36.8249 82.1282 36.6341C82.2225 36.4434 82.3539 36.2946 82.5223 36.1875C82.6918 36.0805 82.89 36.027 83.1167 36.027C83.2545 36.027 83.388 36.0498 83.5172 36.0954C83.6465 36.1409 83.7625 36.2124 83.8653 36.3099C83.9681 36.4074 84.0491 36.534 84.1085 36.6898C84.1678 36.8445 84.1975 37.0325 84.1975 37.254V37.4224H82.2569V37.0664H83.7318C83.7318 36.9414 83.7064 36.8307 83.6555 36.7343C83.6046 36.6368 83.5331 36.56 83.4409 36.5038C83.3498 36.4477 83.2428 36.4196 83.1199 36.4196C82.9864 36.4196 82.8699 36.4524 82.7703 36.5181C82.6717 36.5827 82.5954 36.6675 82.5414 36.7724C82.4884 36.8762 82.4619 36.9891 82.4619 37.1109V37.3891C82.4619 37.5522 82.4905 37.691 82.5478 37.8055C82.606 37.9199 82.6871 38.0073 82.7909 38.0677C82.8948 38.127 83.0161 38.1567 83.1549 38.1567C83.2449 38.1567 83.327 38.144 83.4012 38.1186C83.4754 38.0921 83.5395 38.0529 83.5935 38.001C83.6476 37.949 83.6889 37.8849 83.7175 37.8086L84.1673 37.8897C84.1312 38.0221 84.0666 38.1382 83.9734 38.2378C83.8812 38.3363 83.7652 38.4131 83.6253 38.4682C83.4865 38.5223 83.3281 38.5493 83.1501 38.5493ZM85.5894 38.5477C85.3923 38.5477 85.2164 38.4974 85.0617 38.3967C84.9081 38.295 84.7873 38.1503 84.6993 37.9628C84.6125 37.7742 84.569 37.548 84.569 37.2842C84.569 37.0203 84.613 36.7947 84.7009 36.6071C84.7899 36.4196 84.9118 36.276 85.0665 36.1764C85.2212 36.0768 85.3965 36.027 85.5925 36.027C85.744 36.027 85.8659 36.0524 85.9581 36.1033C86.0513 36.1531 86.1234 36.2114 86.1742 36.2781C86.2261 36.3449 86.2664 36.4037 86.295 36.4545H86.3236V35.2451H86.7988V38.5H86.3347V38.1202H86.295C86.2664 38.1721 86.2251 38.2314 86.171 38.2982C86.1181 38.3649 86.045 38.4232 85.9517 38.473C85.8585 38.5228 85.7377 38.5477 85.5894 38.5477ZM85.6942 38.1424C85.8309 38.1424 85.9464 38.1064 86.0407 38.0343C86.1361 37.9612 86.2081 37.86 86.2569 37.7308C86.3067 37.6015 86.3316 37.451 86.3316 37.2794C86.3316 37.1099 86.3072 36.9615 86.2585 36.8344C86.2097 36.7072 86.1382 36.6082 86.0439 36.5372C85.9496 36.4662 85.8331 36.4307 85.6942 36.4307C85.5512 36.4307 85.432 36.4678 85.3367 36.542C85.2413 36.6161 85.1692 36.7173 85.1205 36.8455C85.0728 36.9737 85.049 37.1183 85.049 37.2794C85.049 37.4426 85.0734 37.5893 85.1221 37.7196C85.1708 37.85 85.2429 37.9533 85.3382 38.0296C85.4347 38.1048 85.5533 38.1424 85.6942 38.1424ZM88.563 38.5V36.0588H89.0224V36.4466H89.0478C89.0923 36.3152 89.1707 36.2119 89.283 36.1367C89.3964 36.0604 89.5246 36.0222 89.6676 36.0222C89.6973 36.0222 89.7323 36.0233 89.7725 36.0254C89.8138 36.0275 89.8462 36.0302 89.8695 36.0334V36.4879C89.8504 36.4826 89.8165 36.4768 89.7678 36.4704C89.719 36.463 89.6703 36.4593 89.6215 36.4593C89.5092 36.4593 89.4091 36.4832 89.3212 36.5308C89.2343 36.5775 89.1654 36.6426 89.1145 36.7263C89.0637 36.809 89.0383 36.9033 89.0383 37.0092V38.5H88.563ZM91.1962 38.5493C90.9557 38.5493 90.7485 38.4979 90.5748 38.3951C90.4021 38.2913 90.2686 38.1456 90.1743 37.958C90.081 37.7694 90.0344 37.5485 90.0344 37.2953C90.0344 37.0452 90.081 36.8249 90.1743 36.6341C90.2686 36.4434 90.3999 36.2946 90.5684 36.1875C90.7379 36.0805 90.9361 36.027 91.1628 36.027C91.3006 36.027 91.4341 36.0498 91.5633 36.0954C91.6926 36.1409 91.8086 36.2124 91.9114 36.3099C92.0142 36.4074 92.0952 36.534 92.1546 36.6898C92.2139 36.8445 92.2436 37.0325 92.2436 37.254V37.4224H90.303V37.0664H91.7779C91.7779 36.9414 91.7525 36.8307 91.7016 36.7343C91.6507 36.6368 91.5792 36.56 91.487 36.5038C91.3959 36.4477 91.2889 36.4196 91.166 36.4196C91.0325 36.4196 90.9159 36.4524 90.8163 36.5181C90.7178 36.5827 90.6415 36.6675 90.5875 36.7724C90.5345 36.8762 90.508 36.9891 90.508 37.1109V37.3891C90.508 37.5522 90.5366 37.691 90.5938 37.8055C90.6521 37.9199 90.7332 38.0073 90.837 38.0677C90.9408 38.127 91.0622 38.1567 91.201 38.1567C91.291 38.1567 91.3731 38.144 91.4473 38.1186C91.5215 38.0921 91.5856 38.0529 91.6396 38.001C91.6937 37.949 91.735 37.8849 91.7636 37.8086L92.2134 37.8897C92.1773 38.0221 92.1127 38.1382 92.0195 38.2378C91.9273 38.3363 91.8113 38.4131 91.6714 38.4682C91.5326 38.5223 91.3742 38.5493 91.1962 38.5493ZM93.432 38.554C93.2773 38.554 93.1375 38.5254 93.0124 38.4682C92.8874 38.4099 92.7883 38.3257 92.7152 38.2155C92.6432 38.1053 92.6072 37.9702 92.6072 37.8102C92.6072 37.6725 92.6336 37.5591 92.6866 37.4701C92.7396 37.3811 92.8111 37.3107 92.9012 37.2587C92.9912 37.2068 93.0919 37.1676 93.2031 37.1411C93.3144 37.1146 93.4278 37.0945 93.5433 37.0807C93.6895 37.0638 93.8081 37.05 93.8993 37.0394C93.9904 37.0278 94.0566 37.0092 94.0979 36.9838C94.1393 36.9584 94.1599 36.917 94.1599 36.8598V36.8487C94.1599 36.7099 94.1207 36.6024 94.0423 36.5261C93.965 36.4498 93.8495 36.4116 93.6958 36.4116C93.5358 36.4116 93.4098 36.4471 93.3176 36.5181C93.2265 36.588 93.1634 36.6659 93.1285 36.7517L92.6819 36.65C92.7348 36.5017 92.8122 36.382 92.9139 36.2908C93.0167 36.1987 93.1348 36.1319 93.2683 36.0906C93.4018 36.0482 93.5422 36.027 93.6895 36.027C93.787 36.027 93.8903 36.0387 93.9994 36.062C94.1096 36.0842 94.2124 36.1256 94.3077 36.1859C94.4041 36.2463 94.4831 36.3327 94.5445 36.445C94.606 36.5563 94.6367 36.7009 94.6367 36.8789V38.5H94.1726V38.1662H94.1536C94.1228 38.2277 94.0767 38.2881 94.0153 38.3474C93.9538 38.4068 93.8749 38.456 93.7785 38.4952C93.6821 38.5344 93.5666 38.554 93.432 38.554ZM93.5353 38.1726C93.6667 38.1726 93.779 38.1466 93.8723 38.0947C93.9666 38.0428 94.0381 37.975 94.0868 37.8913C94.1366 37.8065 94.1615 37.7159 94.1615 37.6195V37.3048C94.1446 37.3218 94.1117 37.3377 94.063 37.3525C94.0153 37.3663 93.9607 37.3785 93.8993 37.3891C93.8378 37.3986 93.778 37.4076 93.7197 37.4161C93.6614 37.4235 93.6127 37.4299 93.5735 37.4352C93.4813 37.4468 93.397 37.4664 93.3208 37.494C93.2455 37.5215 93.1851 37.5612 93.1396 37.6132C93.0951 37.664 93.0728 37.7318 93.0728 37.8166C93.0728 37.9342 93.1163 38.0232 93.2031 38.0836C93.29 38.1429 93.4008 38.1726 93.5353 38.1726ZM95.6956 35.2451V38.5H95.2204V35.2451H95.6956ZM98.4731 38.5493C98.2325 38.5493 98.0254 38.4979 97.8516 38.3951C97.6789 38.2913 97.5454 38.1456 97.4511 37.958C97.3579 37.7694 97.3113 37.5485 97.3113 37.2953C97.3113 37.0452 97.3579 36.8249 97.4511 36.6341C97.5454 36.4434 97.6768 36.2946 97.8453 36.1875C98.0148 36.0805 98.2129 36.027 98.4397 36.027C98.5774 36.027 98.7109 36.0498 98.8402 36.0954C98.9695 36.1409 99.0855 36.2124 99.1883 36.3099C99.291 36.4074 99.3721 36.534 99.4314 36.6898C99.4908 36.8445 99.5204 37.0325 99.5204 37.254V37.4224H97.5799V37.0664H99.0547C99.0547 36.9414 99.0293 36.8307 98.9785 36.7343C98.9276 36.6368 98.8561 36.56 98.7639 36.5038C98.6728 36.4477 98.5658 36.4196 98.4429 36.4196C98.3094 36.4196 98.1928 36.4524 98.0932 36.5181C97.9947 36.5827 97.9184 36.6675 97.8643 36.7724C97.8114 36.8762 97.7849 36.9891 97.7849 37.1109V37.3891C97.7849 37.5522 97.8135 37.691 97.8707 37.8055C97.929 37.9199 98.01 38.0073 98.1139 38.0677C98.2177 38.127 98.339 38.1567 98.4778 38.1567C98.5679 38.1567 98.65 38.144 98.7242 38.1186C98.7983 38.0921 98.8624 38.0529 98.9165 38.001C98.9705 37.949 99.0118 37.8849 99.0404 37.8086L99.4902 37.8897C99.4542 38.0221 99.3896 38.1382 99.2963 38.2378C99.2041 38.3363 99.0881 38.4131 98.9483 38.4682C98.8095 38.5223 98.6511 38.5493 98.4731 38.5493ZM101.828 36.6548L101.397 36.7311C101.379 36.676 101.35 36.6235 101.311 36.5737C101.273 36.5239 101.221 36.4832 101.155 36.4514C101.09 36.4196 101.008 36.4037 100.909 36.4037C100.775 36.4037 100.662 36.4339 100.572 36.4943C100.482 36.5536 100.437 36.6304 100.437 36.7247C100.437 36.8063 100.467 36.872 100.528 36.9218C100.588 36.9716 100.686 37.0124 100.82 37.0442L101.208 37.1332C101.433 37.1851 101.6 37.2651 101.71 37.3732C101.82 37.4812 101.875 37.6216 101.875 37.7943C101.875 37.9406 101.833 38.0709 101.748 38.1853C101.665 38.2987 101.548 38.3877 101.397 38.4523C101.248 38.517 101.074 38.5493 100.877 38.5493C100.604 38.5493 100.381 38.491 100.208 38.3744C100.036 38.2568 99.9296 38.09 99.8904 37.8738L100.35 37.8039C100.378 37.9236 100.437 38.0142 100.526 38.0757C100.615 38.136 100.731 38.1662 100.874 38.1662C101.03 38.1662 101.154 38.1339 101.248 38.0693C101.341 38.0036 101.388 37.9236 101.388 37.8293C101.388 37.753 101.359 37.6889 101.302 37.637C101.246 37.5851 101.159 37.5459 101.043 37.5194L100.629 37.4288C100.402 37.3769 100.233 37.2942 100.124 37.1809C100.016 37.0675 99.9619 36.9239 99.9619 36.7502C99.9619 36.6061 100.002 36.48 100.083 36.3719C100.163 36.2638 100.274 36.1796 100.416 36.1192C100.558 36.0577 100.721 36.027 100.904 36.027C101.168 36.027 101.376 36.0842 101.527 36.1987C101.679 36.312 101.779 36.4641 101.828 36.6548ZM103.488 36.0588V36.4402H102.155V36.0588H103.488ZM102.512 35.4739H102.988V37.7832C102.988 37.8754 103.001 37.9448 103.029 37.9914C103.056 38.037 103.092 38.0682 103.135 38.0852C103.18 38.1011 103.228 38.109 103.28 38.109C103.318 38.109 103.352 38.1064 103.38 38.1011C103.409 38.0958 103.431 38.0915 103.447 38.0884L103.533 38.4809C103.505 38.4915 103.466 38.5021 103.415 38.5127C103.364 38.5244 103.301 38.5307 103.224 38.5318C103.099 38.5339 102.983 38.5117 102.875 38.465C102.767 38.4184 102.679 38.3464 102.613 38.2489C102.546 38.1514 102.512 38.029 102.512 37.8818V35.4739ZM104.675 38.554C104.52 38.554 104.381 38.5254 104.256 38.4682C104.13 38.4099 104.031 38.3257 103.958 38.2155C103.886 38.1053 103.85 37.9702 103.85 37.8102C103.85 37.6725 103.877 37.5591 103.93 37.4701C103.983 37.3811 104.054 37.3107 104.144 37.2587C104.234 37.2068 104.335 37.1676 104.446 37.1411C104.557 37.1146 104.671 37.0945 104.786 37.0807C104.933 37.0638 105.051 37.05 105.142 37.0394C105.233 37.0278 105.3 37.0092 105.341 36.9838C105.382 36.9584 105.403 36.917 105.403 36.8598V36.8487C105.403 36.7099 105.364 36.6024 105.285 36.5261C105.208 36.4498 105.093 36.4116 104.939 36.4116C104.779 36.4116 104.653 36.4471 104.561 36.5181C104.47 36.588 104.407 36.6659 104.372 36.7517L103.925 36.65C103.978 36.5017 104.055 36.382 104.157 36.2908C104.26 36.1987 104.378 36.1319 104.511 36.0906C104.645 36.0482 104.785 36.027 104.933 36.027C105.03 36.027 105.133 36.0387 105.242 36.062C105.353 36.0842 105.455 36.1256 105.551 36.1859C105.647 36.2463 105.726 36.3327 105.788 36.445C105.849 36.5563 105.88 36.7009 105.88 36.8789V38.5H105.416V38.1662H105.397C105.366 38.2277 105.32 38.2881 105.258 38.3474C105.197 38.4068 105.118 38.456 105.022 38.4952C104.925 38.5344 104.81 38.554 104.675 38.554ZM104.778 38.1726C104.91 38.1726 105.022 38.1466 105.115 38.0947C105.21 38.0428 105.281 37.975 105.33 37.8913C105.38 37.8065 105.405 37.7159 105.405 37.6195V37.3048C105.388 37.3218 105.355 37.3377 105.306 37.3525C105.258 37.3663 105.204 37.3785 105.142 37.3891C105.081 37.3986 105.021 37.4076 104.963 37.4161C104.904 37.4235 104.856 37.4299 104.817 37.4352C104.724 37.4468 104.64 37.4664 104.564 37.494C104.489 37.5215 104.428 37.5612 104.383 37.6132C104.338 37.664 104.316 37.7318 104.316 37.8166C104.316 37.9342 104.359 38.0232 104.446 38.0836C104.533 38.1429 104.644 38.1726 104.778 38.1726ZM107.603 36.0588V36.4402H106.27V36.0588H107.603ZM106.627 35.4739H107.102V37.7832C107.102 37.8754 107.116 37.9448 107.144 37.9914C107.171 38.037 107.207 38.0682 107.25 38.0852C107.295 38.1011 107.343 38.109 107.395 38.109C107.433 38.109 107.466 38.1064 107.495 38.1011C107.524 38.0958 107.546 38.0915 107.562 38.0884L107.648 38.4809C107.62 38.4915 107.581 38.5021 107.53 38.5127C107.479 38.5244 107.416 38.5307 107.339 38.5318C107.214 38.5339 107.098 38.5117 106.99 38.465C106.882 38.4184 106.794 38.3464 106.727 38.2489C106.661 38.1514 106.627 38.029 106.627 37.8818V35.4739ZM109.105 38.5493C108.865 38.5493 108.658 38.4979 108.484 38.3951C108.311 38.2913 108.178 38.1456 108.083 37.958C107.99 37.7694 107.944 37.5485 107.944 37.2953C107.944 37.0452 107.99 36.8249 108.083 36.6341C108.178 36.4434 108.309 36.2946 108.478 36.1875C108.647 36.0805 108.845 36.027 109.072 36.027C109.21 36.027 109.343 36.0498 109.473 36.0954C109.602 36.1409 109.718 36.2124 109.821 36.3099C109.923 36.4074 110.004 36.534 110.064 36.6898C110.123 36.8445 110.153 37.0325 110.153 37.254V37.4224H108.212V37.0664H109.687C109.687 36.9414 109.662 36.8307 109.611 36.7343C109.56 36.6368 109.488 36.56 109.396 36.5038C109.305 36.4477 109.198 36.4196 109.075 36.4196C108.942 36.4196 108.825 36.4524 108.726 36.5181C108.627 36.5827 108.551 36.6675 108.497 36.7724C108.444 36.8762 108.417 36.9891 108.417 37.1109V37.3891C108.417 37.5522 108.446 37.691 108.503 37.8055C108.561 37.9199 108.642 38.0073 108.746 38.0677C108.85 38.127 108.971 38.1567 109.11 38.1567C109.2 38.1567 109.282 38.144 109.357 38.1186C109.431 38.0921 109.495 38.0529 109.549 38.001C109.603 37.949 109.644 37.8849 109.673 37.8086L110.123 37.8897C110.087 38.0221 110.022 38.1382 109.929 38.2378C109.836 38.3363 109.72 38.4131 109.581 38.4682C109.442 38.5223 109.283 38.5493 109.105 38.5493Z" fill="black"/>
</svg>
