<svg width="136" height="40" viewBox="0 0 136 40" fill="none" xmlns="http://www.w3.org/2000/svg">
<g clip-path="url(#clip0_1623_386)">
<path d="M38.0022 11.2217C37.9806 11.1012 37.933 10.9869 37.8628 10.8866C37.7927 10.7864 37.7015 10.7026 37.5957 10.641L19.3658 0.112521C19.2387 0.0380399 19.094 -0.0012207 18.9466 -0.0012207C18.7993 -0.0012207 18.6546 0.0380399 18.5275 0.112521L0.415553 10.6374C0.288932 10.7116 0.183943 10.8176 0.111036 10.9449C0.0381291 11.0723 -0.000152904 11.2165 4.5899e-07 11.3633V36.6194C0.000479849 36.8406 0.0885787 37.0526 0.245018 37.2091C0.401457 37.3655 0.613496 37.4536 0.834734 37.4541L37.171 37.543C37.3929 37.543 37.6057 37.4549 37.7626 37.298C37.9195 37.1411 38.0076 36.9283 38.0076 36.7065V11.4431C38.0094 11.4159 38.0094 11.3886 38.0076 11.3614C38.007 11.3146 38.0027 11.2679 37.9949 11.2217M36.3272 12.8186V24.6881L26.0818 18.7724L36.3272 12.8186ZM35.5034 26.1416L19.8975 35.2148V22.369L24.4196 19.7396L35.5034 26.1416ZM18.2226 22.3708V35.2185L2.5042 26.1308L13.5935 19.6852L18.2226 22.3708ZM2.5042 11.3596L18.2299 2.21931V15.0615L13.5916 17.7617L2.5042 11.3596ZM18.9485 16.5803L22.7592 18.7779L19.07 20.9209L15.2593 18.7252L18.9485 16.5803ZM19.9011 15.1994V2.35904L35.507 11.3705L24.4196 17.8088L19.9011 15.1994ZM1.67128 24.6791V12.8113L11.924 18.7289L1.67128 24.6791ZM15.9289 35.8118L1.67128 35.7846V27.5825L15.9289 35.8118ZM36.3345 27.5897V35.8626L22.1585 35.8282L36.3345 27.5897Z" fill="#221F1F"/>
<path d="M48.3672 29.3754V8.16956H52.2088V17.1466H62.035V8.16956H65.8875V29.3754H62.035V20.3657H52.2088V29.3754H48.3672Z" fill="black"/>
<path d="M89.0097 18.7725C89.0097 21.0577 88.5832 23.0127 87.7303 24.6374C86.9486 26.1866 85.742 27.4813 84.2517 28.3701C82.7264 29.2219 81.0084 29.6691 79.2614 29.6691C77.5144 29.6691 75.7964 29.2219 74.2712 28.3701C72.7805 27.4792 71.574 26.1827 70.7925 24.6319C69.9396 23.0072 69.5132 21.0559 69.5132 18.7779C69.5132 16.4999 69.9396 14.5444 70.7925 12.9112C71.5736 11.3616 72.7804 10.0667 74.2712 9.17848C75.797 8.32832 77.5147 7.88208 79.2614 7.88208C81.0081 7.88208 82.7258 8.32832 84.2517 9.17848C85.742 10.0673 86.9486 11.362 87.7303 12.9112C88.5832 14.5371 89.0097 16.4927 89.0097 18.7779M85.1463 18.7779C85.1463 17.1677 84.8965 15.8092 84.3968 14.7022C83.9659 13.6788 83.2441 12.8043 82.3209 12.1871C81.4 11.6281 80.3433 11.3324 79.266 11.3324C78.1886 11.3324 77.1319 11.6281 76.211 12.1871C75.2884 12.8033 74.5666 13.6765 74.1351 14.6986C73.6342 15.8079 73.3838 17.1665 73.3838 18.7743C73.3838 20.382 73.6342 21.74 74.1351 22.8481C74.5673 23.8719 75.2903 24.7463 76.2146 25.3632C77.136 25.9211 78.1925 26.2161 79.2696 26.2161C80.3467 26.2161 81.4032 25.9211 82.3245 25.3632C83.2478 24.7453 83.9695 23.8702 84.4005 22.8463C84.9001 21.7382 85.1499 20.3802 85.1499 18.7725" fill="black"/>
<path d="M92.6553 8.16956H97.3552L103.65 23.5341H103.899L110.196 8.16956H114.895V29.3754H111.21V14.8057H111.012L105.153 29.3119H102.398L96.5368 14.7748H96.3408V29.3754H92.6553V8.16956Z" fill="black"/>
<path d="M68.3101 35.5342H69.3644V38.5265H69.7708V35.5342H70.8251V35.1731H68.3101V35.5342Z" fill="black"/>
<path d="M72.6564 36.1403C72.5244 36.0555 72.376 35.9999 72.2208 35.977C72.0657 35.9541 71.9075 35.9646 71.7567 36.0077C71.606 36.0508 71.4661 36.1255 71.3465 36.2269C71.2269 36.3283 71.1303 36.4541 71.0631 36.5958C70.9641 36.8106 70.915 37.0451 70.9197 37.2817C70.915 37.5171 70.964 37.7504 71.0631 37.964C71.1523 38.1533 71.2935 38.3133 71.4702 38.4254C71.6469 38.5375 71.8519 38.597 72.0611 38.597C72.2704 38.597 72.4754 38.5375 72.6521 38.4254C72.8288 38.3133 72.97 38.1533 73.0592 37.964C73.1591 37.7507 73.2082 37.5171 73.2026 37.2817C73.2082 37.0451 73.1591 36.8103 73.0592 36.5958C72.9709 36.4088 72.8312 36.2508 72.6564 36.1403ZM72.7326 37.7499C72.6846 37.8873 72.5991 38.0087 72.4858 38.1001C72.3607 38.1864 72.2122 38.2326 72.0602 38.2326C71.9082 38.2326 71.7598 38.1864 71.6347 38.1001C71.52 38.0077 71.4344 37.8842 71.3879 37.7444C71.3323 37.5947 71.3047 37.436 71.3063 37.2762C71.305 37.1159 71.3326 36.9567 71.3879 36.8063C71.4357 36.6682 71.5212 36.5462 71.6347 36.4542C71.7594 36.3669 71.908 36.3201 72.0602 36.3201C72.2125 36.3201 72.361 36.3669 72.4858 36.4542C72.5988 36.5467 72.6841 36.6685 72.7326 36.8063C72.7872 36.9568 72.8143 37.1161 72.8124 37.2762C72.8146 37.4359 72.7875 37.5945 72.7326 37.7444V37.7499Z" fill="black"/>
<path d="M75.7992 36.0115H75.3219L74.2205 37.1311H74.1751V35.1731H73.7886V38.5265H74.1751V37.5847L74.4455 37.3343L75.3873 38.5265H75.879L74.7376 37.0857L75.7992 36.0115Z" fill="black"/>
<path d="M77.9476 36.2565C77.8478 36.1618 77.729 36.0895 77.5992 36.0442C77.4742 36.0011 77.343 35.979 77.2108 35.9788C77.0003 35.9747 76.7932 36.0327 76.6156 36.1458C76.4434 36.2595 76.3063 36.4192 76.22 36.6067C76.1221 36.8206 76.0738 37.0538 76.0785 37.289C76.0734 37.5225 76.1218 37.754 76.22 37.9659C76.3077 38.1529 76.4484 38.3101 76.6247 38.4177C76.8141 38.5292 77.031 38.5851 77.2507 38.5792C77.4074 38.5811 77.563 38.5541 77.7098 38.4994C77.84 38.4516 77.9578 38.3754 78.0546 38.2762C78.1462 38.1829 78.214 38.069 78.2524 37.9441L77.8786 37.8389C77.851 37.9205 77.8049 37.9946 77.7438 38.0554C77.6827 38.1161 77.6083 38.1619 77.5266 38.1891C77.4378 38.2191 77.3445 38.2338 77.2507 38.2326C77.1066 38.2358 76.9643 38.2001 76.8388 38.1292C76.7189 38.0593 76.6228 37.955 76.563 37.8298C76.5001 37.6951 76.4673 37.5483 76.4668 37.3997H78.2924V37.2364C78.2979 37.0345 78.2659 36.8333 78.198 36.643C78.1451 36.4968 78.0594 36.3645 77.9476 36.2565ZM76.4668 37.0658C76.4747 36.9512 76.5042 36.8391 76.5539 36.7356C76.6127 36.6163 76.7015 36.5143 76.8116 36.4398C76.9299 36.3618 77.0692 36.3219 77.2108 36.3254C77.3387 36.3227 77.4647 36.3567 77.5738 36.4234C77.677 36.4865 77.7601 36.5778 77.8133 36.6866C77.8708 36.8046 77.8994 36.9346 77.8968 37.0658H76.4668Z" fill="black"/>
<path d="M80.4683 36.0823C80.3305 36.011 80.177 35.9755 80.0219 35.9789C79.8583 35.972 79.6962 36.013 79.5556 36.0968C79.4383 36.1718 79.3451 36.2789 79.287 36.4053H79.2543V36.0116H78.8823V38.5266H79.267V37.0187C79.2634 36.8894 79.2928 36.7614 79.3523 36.6467C79.4027 36.5476 79.4818 36.4661 79.5791 36.4126C79.6803 36.3572 79.7941 36.3291 79.9094 36.3309C79.9877 36.3266 80.0661 36.3393 80.1391 36.3682C80.212 36.397 80.2779 36.4412 80.3322 36.4979C80.4416 36.6263 80.4969 36.7922 80.4865 36.9606V38.5321H80.873V36.9279C80.8791 36.7454 80.8424 36.5639 80.7659 36.3981C80.7012 36.2649 80.5974 36.1548 80.4683 36.0823Z" fill="black"/>
<path d="M81.7768 35.0679C81.7408 35.0672 81.7051 35.0737 81.6717 35.0871C81.6384 35.1005 81.6081 35.1205 81.5826 35.146C81.557 35.1687 81.5365 35.1967 81.5224 35.228C81.5083 35.2592 81.501 35.2931 81.501 35.3274C81.5014 35.3617 81.5088 35.3955 81.5229 35.4267C81.5369 35.4579 81.5573 35.4859 81.5826 35.5089C81.6084 35.5337 81.6388 35.5533 81.6721 35.5663C81.7054 35.5794 81.741 35.5858 81.7768 35.5851C81.849 35.5861 81.9187 35.5587 81.971 35.5089C81.9961 35.4858 82.0162 35.4578 82.0299 35.4265C82.0437 35.3953 82.0508 35.3615 82.0508 35.3274C82.0511 35.2932 82.0441 35.2594 82.0304 35.2281C82.0166 35.1968 81.9964 35.1688 81.971 35.146C81.9454 35.1207 81.9151 35.1008 81.8817 35.0874C81.8484 35.074 81.8127 35.0674 81.7768 35.0679Z" fill="black"/>
<path d="M81.9671 36.0115H81.5806V38.5266H81.9671V36.0115Z" fill="black"/>
<path d="M83.1397 38.14L84.5279 36.32V36.0115H82.6479V36.3726H84.0288V36.398L82.6025 38.2326V38.5266H84.5732V38.1654H83.1397V38.14Z" fill="black"/>
<path d="M86.8522 36.2564C86.7524 36.1617 86.6337 36.0894 86.5038 36.0441C86.3788 36.0011 86.2476 35.9791 86.1155 35.9788C85.9049 35.9742 85.6978 36.0323 85.5203 36.1457C85.347 36.2588 85.2093 36.4186 85.1229 36.6066C85.025 36.8205 84.9766 37.0537 84.9813 37.2889C84.9762 37.5224 85.0246 37.7539 85.1229 37.9658C85.2111 38.1524 85.3517 38.3094 85.5275 38.4176C85.7171 38.5286 85.9339 38.5846 86.1536 38.5791C86.3108 38.5813 86.4671 38.5542 86.6145 38.4993C86.7439 38.4511 86.861 38.3749 86.9575 38.2761C87.0502 38.1834 87.1187 38.0694 87.1571 37.944L86.7833 37.8388C86.7531 37.9212 86.7054 37.9961 86.6435 38.0583C86.5827 38.1172 86.5095 38.1618 86.4294 38.189C86.3406 38.2191 86.2473 38.2339 86.1536 38.2325C86.0101 38.2356 85.8684 38.1999 85.7435 38.1291C85.6231 38.0598 85.5269 37.9553 85.4676 37.8297C85.4047 37.695 85.3719 37.5483 85.3715 37.3996H87.1952V37.2363C87.2005 37.0345 87.1691 36.8335 87.1026 36.6429C87.0497 36.4967 86.9641 36.3645 86.8522 36.2564ZM85.3715 37.0657C85.3783 36.9509 85.4079 36.8387 85.4586 36.7355C85.5168 36.6158 85.6057 36.5137 85.7162 36.4397C85.8345 36.3617 85.9738 36.3218 86.1155 36.3254C86.2433 36.3226 86.3693 36.3566 86.4784 36.4233C86.5808 36.487 86.6631 36.5782 86.7161 36.6865C86.7743 36.8043 86.8035 36.9343 86.8014 37.0657H85.3715Z" fill="black"/>
<path d="M89.5015 36.4107H89.4616C89.4326 36.3671 89.3926 36.3109 89.3418 36.2437C89.2827 36.168 89.2078 36.1061 89.1222 36.0623C89.002 36.0021 88.8682 35.974 88.7339 35.9806C88.5358 35.9764 88.341 36.0321 88.175 36.1403C88.0085 36.2513 87.877 36.4074 87.7957 36.5903C87.7004 36.8068 87.6539 37.0416 87.6597 37.2781C87.6542 37.5157 87.7006 37.7516 87.7957 37.9694C87.8768 38.1524 88.0076 38.309 88.1732 38.4213C88.3378 38.5295 88.5315 38.5852 88.7285 38.581C88.8622 38.5872 88.9952 38.5591 89.115 38.4993C89.2016 38.4549 89.2782 38.3931 89.34 38.3179C89.3926 38.2489 89.4326 38.1908 89.4616 38.1455H89.507V38.532H89.8808V35.1731H89.4942L89.5015 36.4107ZM89.4235 37.7717C89.3765 37.9052 89.2921 38.0224 89.1803 38.1092C89.0634 38.1912 88.924 38.2353 88.7811 38.2353C88.6382 38.2353 88.4988 38.1912 88.3819 38.1092C88.2695 38.0187 88.1847 37.8987 88.1369 37.7626C88.0263 37.4497 88.0263 37.1083 88.1369 36.7954C88.1846 36.6618 88.2689 36.5442 88.3801 36.456C88.4993 36.3765 88.6395 36.334 88.7829 36.334C88.9263 36.334 89.0665 36.3765 89.1858 36.456C89.2968 36.5401 89.3807 36.655 89.4271 36.7863C89.5372 37.1093 89.5372 37.4596 89.4271 37.7825L89.4235 37.7717Z" fill="black"/>
<path d="M92.9986 35.9715C92.8544 35.9696 92.7129 36.0106 92.5922 36.0895C92.4784 36.1598 92.391 36.2657 92.3436 36.3907H92.3182V36.0114H91.9443V38.5265H92.3309V36.9351C92.3283 36.828 92.3573 36.7226 92.4143 36.632C92.4686 36.5426 92.5465 36.4698 92.6393 36.4215C92.7403 36.3696 92.8525 36.3434 92.966 36.3453C93.0152 36.3452 93.0643 36.3488 93.113 36.3562L93.2019 36.3725V35.9788H93.1057L92.9986 35.9715Z" fill="black"/>
<path d="M95.3395 36.2564C95.2394 36.1613 95.1199 36.0889 94.9893 36.0441C94.865 36.001 94.7343 35.9789 94.6028 35.9788C94.3922 35.974 94.185 36.0322 94.0076 36.1457C93.8343 36.2588 93.6965 36.4186 93.6102 36.6066C93.5123 36.8205 93.4639 37.0538 93.4686 37.289C93.4635 37.5224 93.5119 37.754 93.6102 37.9658C93.6978 38.1529 93.8385 38.31 94.0148 38.4177C94.2044 38.5287 94.4212 38.5846 94.6409 38.5792C94.7981 38.5813 94.9544 38.5542 95.1018 38.4993C95.2312 38.4511 95.3483 38.3749 95.4448 38.2761C95.537 38.1833 95.6049 38.0693 95.6426 37.944L95.2796 37.8388C95.2495 37.9212 95.2018 37.9961 95.1399 38.0584C95.079 38.1172 95.0059 38.1618 94.9258 38.189C94.837 38.2191 94.7437 38.2339 94.65 38.2326C94.5064 38.2357 94.3647 38.1999 94.2398 38.1291C94.1195 38.0598 94.0233 37.9553 93.964 37.8297C93.9013 37.6949 93.8679 37.5483 93.866 37.3996H95.6916V37.2363C95.6968 37.0346 95.6655 36.8335 95.599 36.6429C95.5421 36.4965 95.4535 36.3646 95.3395 36.2564ZM93.8588 37.0657C93.8647 36.9508 93.8944 36.8384 93.9459 36.7355C94.0041 36.6158 94.093 36.5137 94.2036 36.4397C94.3217 36.3615 94.4611 36.3216 94.6028 36.3254C94.7307 36.3223 94.8567 36.3563 94.9657 36.4234C95.069 36.4865 95.1521 36.5778 95.2052 36.6865C95.2628 36.8045 95.2914 36.9345 95.2887 37.0657H93.8588Z" fill="black"/>
<path d="M97.8199 36.1239C97.7255 36.0669 97.6216 36.0276 97.5132 36.0078C97.4217 35.9895 97.3288 35.9798 97.2356 35.9788C97.1051 35.9798 96.9753 35.9969 96.849 36.0296C96.7168 36.0643 96.5932 36.1261 96.4861 36.211C96.3683 36.307 96.2776 36.4321 96.223 36.574L96.5859 36.7046C96.638 36.6018 96.7139 36.5128 96.8073 36.4451C96.9346 36.3583 97.0872 36.3162 97.241 36.3254C97.3132 36.3195 97.3858 36.3283 97.4544 36.3514C97.5231 36.3745 97.5863 36.4113 97.6402 36.4596C97.6859 36.5104 97.7209 36.5698 97.7434 36.6343C97.7658 36.6988 97.7752 36.7671 97.7709 36.8353V36.8371C97.7734 36.8631 97.7687 36.8892 97.7571 36.9127C97.7456 36.9361 97.7277 36.9558 97.7055 36.9695C97.639 36.9992 97.5677 37.017 97.495 37.0222L97.1321 37.0675C97.0142 37.0821 96.8998 37.1038 96.7837 37.1292C96.6738 37.153 96.5676 37.1915 96.468 37.2436C96.3748 37.2929 96.2965 37.3662 96.2411 37.4559C96.1803 37.5629 96.1507 37.6849 96.1558 37.8079C96.1513 37.9553 96.1911 38.1007 96.2702 38.2253C96.3464 38.3408 96.4541 38.4321 96.5805 38.4884C96.7162 38.5516 96.8645 38.5832 97.0142 38.5809C97.1384 38.5826 97.2617 38.5598 97.3771 38.5138C97.4675 38.4772 97.5501 38.4236 97.6203 38.3559C97.6741 38.3035 97.7183 38.2421 97.7509 38.1745H97.7709V38.5156H98.1719V36.8589C98.1793 36.6935 98.1457 36.5289 98.0739 36.3798C98.0134 36.2735 97.9257 36.1852 97.8199 36.1239ZM97.7781 37.6156C97.7781 37.7209 97.7499 37.8243 97.6965 37.915C97.6408 38.0138 97.5584 38.095 97.4588 38.1491C97.3393 38.2121 97.2054 38.2428 97.0704 38.238C96.9366 38.2432 96.8044 38.2078 96.6912 38.1364C96.6417 38.103 96.6018 38.0574 96.5754 38.0039C96.549 37.9504 96.537 37.891 96.5405 37.8315C96.5379 37.7894 96.5435 37.7472 96.5572 37.7074C96.571 37.6675 96.5924 37.6308 96.6204 37.5992C96.6775 37.5388 96.7494 37.4943 96.8291 37.4704C96.9205 37.4401 97.0147 37.4189 97.1103 37.4069L97.2737 37.3869C97.3408 37.3778 97.4098 37.3688 97.4805 37.3561C97.5417 37.346 97.6023 37.3327 97.662 37.3161C97.7019 37.3079 97.7389 37.2891 97.7691 37.2617L97.7781 37.6156Z" fill="black"/>
<path d="M99.2591 35.1731H98.8726V38.5265H99.2591V35.1731Z" fill="black"/>
<path d="M103.015 36.2564C102.916 36.1617 102.797 36.0894 102.667 36.0441C102.542 36.0011 102.411 35.9791 102.279 35.9788C102.068 35.9742 101.861 36.0323 101.683 36.1457C101.51 36.2588 101.372 36.4186 101.286 36.6066C101.188 36.8205 101.14 37.0537 101.144 37.2889C101.139 37.5224 101.188 37.7539 101.286 37.9658C101.374 38.1524 101.515 38.3094 101.691 38.4176C101.88 38.5286 102.097 38.5846 102.317 38.5791C102.474 38.5813 102.63 38.5542 102.778 38.4993C102.907 38.4511 103.024 38.3749 103.121 38.2761C103.213 38.1834 103.282 38.0694 103.32 37.944L102.946 37.8388C102.916 37.9212 102.868 37.9961 102.807 38.0583C102.746 38.1172 102.673 38.1618 102.592 38.189C102.504 38.2191 102.41 38.2339 102.317 38.2325C102.173 38.2356 102.031 38.1999 101.907 38.1291C101.786 38.0598 101.69 37.9553 101.631 37.8297C101.568 37.695 101.535 37.5483 101.535 37.3996H103.358V37.2363C103.364 37.0345 103.332 36.8335 103.266 36.6429C103.213 36.4967 103.127 36.3645 103.015 36.2564ZM101.535 37.0657C101.541 36.9509 101.571 36.8387 101.622 36.7355C101.68 36.6158 101.769 36.5137 101.879 36.4397C101.998 36.3617 102.137 36.3218 102.279 36.3254C102.406 36.3226 102.532 36.3566 102.641 36.4233C102.744 36.487 102.826 36.5782 102.879 36.6865C102.937 36.8043 102.967 36.9343 102.964 37.0657H101.535Z" fill="black"/>
<path d="M105.108 37.1438L104.734 37.0531C104.616 37.0304 104.505 36.9827 104.407 36.9134C104.373 36.8868 104.345 36.8523 104.327 36.8129C104.308 36.7734 104.3 36.73 104.302 36.6865C104.302 36.6325 104.316 36.5794 104.343 36.5324C104.37 36.4853 104.408 36.4459 104.454 36.418C104.569 36.3442 104.703 36.3075 104.839 36.3127C104.934 36.309 105.029 36.3277 105.115 36.3672C105.185 36.3977 105.247 36.4443 105.296 36.5033C105.336 36.5554 105.367 36.6128 105.391 36.6738L105.739 36.574C105.684 36.4023 105.578 36.2516 105.434 36.1422C105.262 36.0244 105.056 35.9669 104.848 35.9788C104.686 35.9758 104.524 36.0073 104.375 36.0714C104.244 36.1277 104.131 36.2164 104.044 36.3291C103.964 36.4384 103.922 36.571 103.925 36.7065C103.92 36.8661 103.978 37.0211 104.086 37.1384C104.226 37.2718 104.402 37.3608 104.592 37.3943L105.011 37.4922C105.115 37.5104 105.213 37.5562 105.293 37.6247C105.323 37.6532 105.346 37.6875 105.362 37.7257C105.378 37.7638 105.386 37.8048 105.385 37.8461C105.384 37.902 105.368 37.9566 105.34 38.0051C105.313 38.0535 105.273 38.0943 105.226 38.1237C105.098 38.2059 104.947 38.2459 104.796 38.2381C104.66 38.2449 104.525 38.2094 104.411 38.1364C104.31 38.0627 104.239 37.9541 104.213 37.8316L103.85 37.9241C103.867 38.0232 103.904 38.1177 103.959 38.2017C104.014 38.2857 104.085 38.3574 104.169 38.4123C104.361 38.5299 104.582 38.588 104.806 38.5792C104.983 38.5828 105.158 38.5494 105.32 38.4812C105.457 38.4238 105.576 38.3311 105.665 38.2127C105.746 38.1003 105.789 37.9648 105.788 37.8261C105.791 37.7467 105.778 37.6675 105.75 37.5933C105.721 37.519 105.678 37.4513 105.623 37.3943C105.478 37.2644 105.299 37.1777 105.108 37.1438Z" fill="black"/>
<path d="M107.354 38.1781C107.319 38.1814 107.284 38.1814 107.249 38.1781C107.194 38.1781 107.139 38.1695 107.087 38.1527C107.034 38.1329 106.99 38.0941 106.964 38.0438C106.926 37.9678 106.909 37.8834 106.915 37.7989V36.3326H107.459V36.0042H106.915V35.4017H106.528V36.0042H106.156V36.3326H106.536V37.9041C106.531 38.0327 106.566 38.1595 106.637 38.267C106.698 38.3609 106.783 38.4372 106.882 38.4884C106.983 38.535 107.092 38.5592 107.203 38.5592C107.264 38.5601 107.325 38.5552 107.385 38.5447C107.422 38.5365 107.458 38.5262 107.494 38.5138L107.416 38.1672L107.354 38.1781Z" fill="black"/>
<path d="M109.582 36.1239C109.488 36.0669 109.385 36.0275 109.277 36.0078C109.185 35.9895 109.092 35.9798 108.998 35.9788C108.867 35.9798 108.738 35.9969 108.611 36.0296C108.479 36.0647 108.356 36.1265 108.248 36.211C108.131 36.307 108.04 36.4321 107.985 36.574L108.348 36.7046C108.401 36.6021 108.477 36.5132 108.57 36.4451C108.697 36.3586 108.849 36.3165 109.003 36.3254C109.075 36.3195 109.148 36.3283 109.217 36.3514C109.285 36.3745 109.349 36.4113 109.403 36.4596C109.448 36.5104 109.483 36.5698 109.506 36.6343C109.528 36.6988 109.537 36.7671 109.533 36.8353V36.8371C109.536 36.8631 109.531 36.8892 109.519 36.9127C109.508 36.9361 109.49 36.9558 109.468 36.9695C109.401 36.9995 109.33 37.0173 109.257 37.0222L108.894 37.0675C108.778 37.0821 108.662 37.1038 108.546 37.1292C108.437 37.1527 108.331 37.1912 108.232 37.2436C108.138 37.2924 108.059 37.3657 108.003 37.4559C107.943 37.5629 107.913 37.6849 107.918 37.8079C107.912 37.9509 107.949 38.0925 108.025 38.2139C108.101 38.3354 108.212 38.4311 108.343 38.4884C108.479 38.5513 108.627 38.5829 108.776 38.5809C108.904 38.584 109.03 38.5611 109.148 38.5138C109.239 38.4777 109.322 38.424 109.392 38.3559C109.445 38.303 109.49 38.2417 109.524 38.1745H109.542V38.5156H109.929V36.8589C109.936 36.6935 109.902 36.5289 109.831 36.3798C109.772 36.2742 109.686 36.186 109.582 36.1239ZM109.54 37.6156C109.541 37.7207 109.513 37.8241 109.461 37.915C109.404 38.0135 109.321 38.0945 109.221 38.1491C109.102 38.2119 108.969 38.2425 108.835 38.238C108.7 38.2431 108.567 38.2077 108.453 38.1364C108.404 38.1028 108.365 38.0571 108.338 38.0037C108.312 37.9503 108.3 37.891 108.303 37.8315C108.298 37.7467 108.327 37.6634 108.383 37.5992C108.44 37.5388 108.513 37.4944 108.593 37.4704C108.684 37.4399 108.778 37.4186 108.873 37.4069L109.036 37.3869C109.103 37.3778 109.172 37.3688 109.245 37.3561C109.306 37.3459 109.366 37.3326 109.426 37.3161C109.466 37.3083 109.503 37.2894 109.533 37.2617L109.54 37.6156Z" fill="black"/>
<path d="M111.631 38.1781C111.596 38.1814 111.561 38.1814 111.526 38.1781C111.471 38.1781 111.417 38.1695 111.364 38.1527C111.311 38.1329 111.267 38.0941 111.241 38.0438C111.204 37.9678 111.187 37.8834 111.192 37.7989V36.3326H111.736V36.0042H111.192V35.4017H110.806V36.0042H110.426V36.3326H110.806V37.9041C110.801 38.0327 110.836 38.1595 110.907 38.267C110.973 38.3602 111.063 38.4341 111.167 38.4812C111.267 38.5275 111.376 38.5517 111.486 38.5519C111.547 38.5528 111.608 38.5479 111.667 38.5374C111.704 38.5292 111.741 38.5189 111.776 38.5066L111.698 38.16L111.631 38.1781Z" fill="black"/>
<path d="M114.386 37.2364C114.39 37.0345 114.358 36.8335 114.291 36.643C114.238 36.4968 114.153 36.3645 114.041 36.2565C113.941 36.1618 113.822 36.0895 113.692 36.0442C113.567 36.0012 113.436 35.9791 113.304 35.9788C113.094 35.9747 112.887 36.0327 112.709 36.1458C112.536 36.2588 112.399 36.4187 112.313 36.6067C112.215 36.8206 112.167 37.0538 112.172 37.289C112.167 37.5225 112.215 37.754 112.313 37.9659C112.401 38.1524 112.541 38.3094 112.716 38.4177C112.906 38.529 113.124 38.5849 113.344 38.5792C113.501 38.5811 113.656 38.5541 113.803 38.4994C113.933 38.4512 114.051 38.375 114.148 38.2762C114.239 38.1829 114.307 38.069 114.346 37.9441L113.972 37.8389C113.944 37.9201 113.897 37.9938 113.836 38.0545C113.775 38.1151 113.701 38.1612 113.62 38.1891C113.531 38.2191 113.438 38.2338 113.344 38.2326C113.2 38.2358 113.058 38.2001 112.932 38.1292C112.812 38.0593 112.716 37.955 112.656 37.8298C112.593 37.6951 112.561 37.5483 112.56 37.3997H114.386V37.2364ZM112.56 37.0658C112.567 36.951 112.597 36.8388 112.647 36.7356C112.706 36.6163 112.795 36.5143 112.905 36.4398C113.023 36.3618 113.162 36.3219 113.304 36.3254C113.432 36.3227 113.558 36.3567 113.667 36.4234C113.77 36.487 113.853 36.5782 113.907 36.6866C113.964 36.8046 113.993 36.9346 113.99 37.0658H112.56Z" fill="black"/>
<path d="M135.619 25.659V20.7141C135.619 20.326 135.518 19.9446 135.327 19.6066C135.137 19.2687 134.862 18.9857 134.53 18.7851C134.862 18.5846 135.137 18.3016 135.327 17.9636C135.518 17.6257 135.619 17.2442 135.619 16.8562V11.8913C135.618 11.7647 135.612 11.6381 135.599 11.5121C135.514 10.5963 135.091 9.74515 134.411 9.12595C133.731 8.50675 132.844 8.1643 131.924 8.1659H124.707H122.167C120.394 8.1659 118.957 9.79907 118.94 11.8278V15.5896H122.626V11.8569H131.924V16.7709H124.653V16.76H122.488V20.4564H131.924V25.659H122.624V21.8991H118.938V25.6481H118.918C118.918 26.6284 119.308 27.5686 120.001 28.2619C120.694 28.9551 121.635 29.3445 122.615 29.3445H131.924V29.3663C132.712 29.366 133.479 29.1134 134.113 28.6454C134.747 28.1775 135.214 27.5188 135.446 26.7659C135.56 26.408 135.618 26.0346 135.619 25.659Z" fill="black"/>
</g>
<defs>
<clipPath id="clip0_1623_386">
<rect width="135.619" height="40" fill="white"/>
</clipPath>
</defs>
</svg>
